  0
SECTION
  2
BLOCKS
  0
ENDSEC
  0
SECTION
  2
ENTITIES
  0
LINE
  8
0
 10
-68.8897
 20
-34
 11
-68.8517
 21
-34.8716
  0
LINE
  8
0
 10
-68.8517
 20
-34.8716
 11
-68.7378
 21
-35.7365
  0
LINE
  8
0
 10
-68.7378
 20
-35.7365
 11
-68.549
 21
-36.5882
  0
LINE
  8
0
 10
-68.549
 20
-36.5882
 11
-68.2867
 21
-37.4202
  0
LINE
  8
0
 10
-68.2867
 20
-37.4202
 11
-67.9528
 21
-38.2262
  0
LINE
  8
0
 10
-67.9528
 20
-38.2262
 11
-67.55
 21
-39
  0
LINE
  8
0
 10
-67.55
 20
-39
 11
-67.0812
 21
-39.7358
  0
LINE
  8
0
 10
-67.0812
 20
-39.7358
 11
-66.5502
 21
-40.4279
  0
LINE
  8
0
 10
-66.5502
 20
-40.4279
 11
-65.9608
 21
-41.0711
  0
LINE
  8
0
 10
-65.9608
 20
-41.0711
 11
-65.3176
 21
-41.6604
  0
LINE
  8
0
 10
-65.3176
 20
-41.6604
 11
-64.6255
 21
-42.1915
  0
LINE
  8
0
 10
-64.6255
 20
-42.1915
 11
-63.8897
 21
-42.6603
  0
LINE
  8
0
 10
-63.8897
 20
-42.6603
 11
-63.1159
 21
-43.0631
  0
LINE
  8
0
 10
-63.1159
 20
-43.0631
 11
-62.3099
 21
-43.3969
  0
LINE
  8
0
 10
-62.3099
 20
-43.3969
 11
-61.4779
 21
-43.6593
  0
LINE
  8
0
 10
-61.4779
 20
-43.6593
 11
-60.6262
 21
-43.8481
  0
LINE
  8
0
 10
-60.6262
 20
-43.8481
 11
-59.7613
 21
-43.9619
  0
LINE
  8
0
 10
-59.7613
 20
-43.9619
 11
-58.8897
 21
-44
  0
LINE
  8
0
 10
-58.8897
 20
-44
 11
-58.0182
 21
-43.9619
  0
LINE
  8
0
 10
-58.0182
 20
-43.9619
 11
-57.1532
 21
-43.8481
  0
LINE
  8
0
 10
-57.1532
 20
-43.8481
 11
-56.3015
 21
-43.6593
  0
LINE
  8
0
 10
-56.3015
 20
-43.6593
 11
-55.4695
 21
-43.3969
  0
LINE
  8
0
 10
-55.4695
 20
-43.3969
 11
-54.6635
 21
-43.0631
  0
LINE
  8
0
 10
-54.6635
 20
-43.0631
 11
-53.8897
 21
-42.6603
  0
LINE
  8
0
 10
-53.8897
 20
-42.6603
 11
-53.154
 21
-42.1915
  0
LINE
  8
0
 10
-53.154
 20
-42.1915
 11
-52.4619
 21
-41.6604
  0
LINE
  8
0
 10
-52.4619
 20
-41.6604
 11
-51.8187
 21
-41.0711
  0
LINE
  8
0
 10
-51.8187
 20
-41.0711
 11
-51.2293
 21
-40.4279
  0
LINE
  8
0
 10
-51.2293
 20
-40.4279
 11
-50.6982
 21
-39.7358
  0
LINE
  8
0
 10
-50.6982
 20
-39.7358
 11
-50.2295
 21
-39
  0
LINE
  8
0
 10
-50.2295
 20
-39
 11
-50.2295
 21
-39
  0
LINE
  8
0
 10
-50.2295
 20
-39
 11
-8.66025
 21
-63
  0
LINE
  8
0
 10
-8.66025
 20
-63
 11
-9.06308
 21
-63.7738
  0
LINE
  8
0
 10
-9.06308
 20
-63.7738
 11
-9.39693
 21
-64.5798
  0
LINE
  8
0
 10
-9.39693
 20
-64.5798
 11
-9.65926
 21
-65.4118
  0
LINE
  8
0
 10
-9.65926
 20
-65.4118
 11
-9.84808
 21
-66.2635
  0
LINE
  8
0
 10
-9.84808
 20
-66.2635
 11
-9.96195
 21
-67.1284
  0
LINE
  8
0
 10
-9.96195
 20
-67.1284
 11
-10
 21
-68
  0
LINE
  8
0
 10
-10
 20
-68
 11
-9.96195
 21
-68.8716
  0
LINE
  8
0
 10
-9.96195
 20
-68.8716
 11
-9.84808
 21
-69.7365
  0
LINE
  8
0
 10
-9.84808
 20
-69.7365
 11
-9.65926
 21
-70.5882
  0
LINE
  8
0
 10
-9.65926
 20
-70.5882
 11
-9.39693
 21
-71.4202
  0
LINE
  8
0
 10
-9.39693
 20
-71.4202
 11
-9.06308
 21
-72.2262
  0
LINE
  8
0
 10
-9.06308
 20
-72.2262
 11
-8.66025
 21
-73
  0
LINE
  8
0
 10
-8.66025
 20
-73
 11
-8.19152
 21
-73.7358
  0
LINE
  8
0
 10
-8.19152
 20
-73.7358
 11
-7.66044
 21
-74.4279
  0
LINE
  8
0
 10
-7.66044
 20
-74.4279
 11
-7.07107
 21
-75.0711
  0
LINE
  8
0
 10
-7.07107
 20
-75.0711
 11
-6.42788
 21
-75.6604
  0
LINE
  8
0
 10
-6.42788
 20
-75.6604
 11
-5.73576
 21
-76.1915
  0
LINE
  8
0
 10
-5.73576
 20
-76.1915
 11
-5
 21
-76.6603
  0
LINE
  8
0
 10
-5
 20
-76.6603
 11
-4.22618
 21
-77.0631
  0
LINE
  8
0
 10
-4.22618
 20
-77.0631
 11
-3.4202
 21
-77.3969
  0
LINE
  8
0
 10
-3.4202
 20
-77.3969
 11
-2.58819
 21
-77.6593
  0
LINE
  8
0
 10
-2.58819
 20
-77.6593
 11
-1.73648
 21
-77.8481
  0
LINE
  8
0
 10
-1.73648
 20
-77.8481
 11
-0.871557
 21
-77.9619
  0
LINE
  8
0
 10
-0.871557
 20
-77.9619
 11
0
 21
-78
  0
LINE
  8
0
 10
0
 20
-78
 11
0.871557
 21
-77.9619
  0
LINE
  8
0
 10
0.871557
 20
-77.9619
 11
1.73648
 21
-77.8481
  0
LINE
  8
0
 10
1.73648
 20
-77.8481
 11
2.58819
 21
-77.6593
  0
LINE
  8
0
 10
2.58819
 20
-77.6593
 11
3.4202
 21
-77.3969
  0
LINE
  8
0
 10
3.4202
 20
-77.3969
 11
4.22618
 21
-77.0631
  0
LINE
  8
0
 10
4.22618
 20
-77.0631
 11
5
 21
-76.6603
  0
LINE
  8
0
 10
5
 20
-76.6603
 11
5.73576
 21
-76.1915
  0
LINE
  8
0
 10
5.73576
 20
-76.1915
 11
6.42788
 21
-75.6604
  0
LINE
  8
0
 10
6.42788
 20
-75.6604
 11
7.07107
 21
-75.0711
  0
LINE
  8
0
 10
7.07107
 20
-75.0711
 11
7.66044
 21
-74.4279
  0
LINE
  8
0
 10
7.66044
 20
-74.4279
 11
8.19152
 21
-73.7358
  0
LINE
  8
0
 10
8.19152
 20
-73.7358
 11
8.66025
 21
-73
  0
LINE
  8
0
 10
8.66025
 20
-73
 11
9.06308
 21
-72.2262
  0
LINE
  8
0
 10
9.06308
 20
-72.2262
 11
9.39693
 21
-71.4202
  0
LINE
  8
0
 10
9.39693
 20
-71.4202
 11
9.65926
 21
-70.5882
  0
LINE
  8
0
 10
9.65926
 20
-70.5882
 11
9.84808
 21
-69.7365
  0
LINE
  8
0
 10
9.84808
 20
-69.7365
 11
9.96195
 21
-68.8716
  0
LINE
  8
0
 10
9.96195
 20
-68.8716
 11
10
 21
-68
  0
LINE
  8
0
 10
10
 20
-68
 11
9.96195
 21
-67.1284
  0
LINE
  8
0
 10
9.96195
 20
-67.1284
 11
9.84808
 21
-66.2635
  0
LINE
  8
0
 10
9.84808
 20
-66.2635
 11
9.65926
 21
-65.4118
  0
LINE
  8
0
 10
9.65926
 20
-65.4118
 11
9.39693
 21
-64.5798
  0
LINE
  8
0
 10
9.39693
 20
-64.5798
 11
9.06308
 21
-63.7738
  0
LINE
  8
0
 10
9.06308
 20
-63.7738
 11
8.66025
 21
-63
  0
LINE
  8
0
 10
8.66025
 20
-63
 11
50.2295
 21
-39
  0
LINE
  8
0
 10
50.2295
 20
-39
 11
50.2295
 21
-39
  0
LINE
  8
0
 10
50.2295
 20
-39
 11
50.6982
 21
-39.7358
  0
LINE
  8
0
 10
50.6982
 20
-39.7358
 11
51.2293
 21
-40.4279
  0
LINE
  8
0
 10
51.2293
 20
-40.4279
 11
51.8187
 21
-41.0711
  0
LINE
  8
0
 10
51.8187
 20
-41.0711
 11
52.4619
 21
-41.6604
  0
LINE
  8
0
 10
52.4619
 20
-41.6604
 11
53.154
 21
-42.1915
  0
LINE
  8
0
 10
53.154
 20
-42.1915
 11
53.8897
 21
-42.6603
  0
LINE
  8
0
 10
53.8897
 20
-42.6603
 11
54.6635
 21
-43.0631
  0
LINE
  8
0
 10
54.6635
 20
-43.0631
 11
55.4695
 21
-43.3969
  0
LINE
  8
0
 10
55.4695
 20
-43.3969
 11
56.3015
 21
-43.6593
  0
LINE
  8
0
 10
56.3015
 20
-43.6593
 11
57.1532
 21
-43.8481
  0
LINE
  8
0
 10
57.1532
 20
-43.8481
 11
58.0182
 21
-43.9619
  0
LINE
  8
0
 10
58.0182
 20
-43.9619
 11
58.8897
 21
-44
  0
LINE
  8
0
 10
58.8897
 20
-44
 11
59.7613
 21
-43.9619
  0
LINE
  8
0
 10
59.7613
 20
-43.9619
 11
60.6262
 21
-43.8481
  0
LINE
  8
0
 10
60.6262
 20
-43.8481
 11
61.4779
 21
-43.6593
  0
LINE
  8
0
 10
61.4779
 20
-43.6593
 11
62.3099
 21
-43.3969
  0
LINE
  8
0
 10
62.3099
 20
-43.3969
 11
63.1159
 21
-43.0631
  0
LINE
  8
0
 10
63.1159
 20
-43.0631
 11
63.8897
 21
-42.6603
  0
LINE
  8
0
 10
63.8897
 20
-42.6603
 11
64.6255
 21
-42.1915
  0
LINE
  8
0
 10
64.6255
 20
-42.1915
 11
65.3176
 21
-41.6604
  0
LINE
  8
0
 10
65.3176
 20
-41.6604
 11
65.9608
 21
-41.0711
  0
LINE
  8
0
 10
65.9608
 20
-41.0711
 11
66.5502
 21
-40.4279
  0
LINE
  8
0
 10
66.5502
 20
-40.4279
 11
67.0812
 21
-39.7358
  0
LINE
  8
0
 10
67.0812
 20
-39.7358
 11
67.55
 21
-39
  0
LINE
  8
0
 10
67.55
 20
-39
 11
67.9528
 21
-38.2262
  0
LINE
  8
0
 10
67.9528
 20
-38.2262
 11
68.2867
 21
-37.4202
  0
LINE
  8
0
 10
68.2867
 20
-37.4202
 11
68.549
 21
-36.5882
  0
LINE
  8
0
 10
68.549
 20
-36.5882
 11
68.7378
 21
-35.7365
  0
LINE
  8
0
 10
68.7378
 20
-35.7365
 11
68.8517
 21
-34.8716
  0
LINE
  8
0
 10
68.8517
 20
-34.8716
 11
68.8897
 21
-34
  0
LINE
  8
0
 10
68.8897
 20
-34
 11
68.8517
 21
-33.1284
  0
LINE
  8
0
 10
68.8517
 20
-33.1284
 11
68.7378
 21
-32.2635
  0
LINE
  8
0
 10
68.7378
 20
-32.2635
 11
68.549
 21
-31.4118
  0
LINE
  8
0
 10
68.549
 20
-31.4118
 11
68.2867
 21
-30.5798
  0
LINE
  8
0
 10
68.2867
 20
-30.5798
 11
67.9528
 21
-29.7738
  0
LINE
  8
0
 10
67.9528
 20
-29.7738
 11
67.55
 21
-29
  0
LINE
  8
0
 10
67.55
 20
-29
 11
67.0812
 21
-28.2642
  0
LINE
  8
0
 10
67.0812
 20
-28.2642
 11
66.5502
 21
-27.5721
  0
LINE
  8
0
 10
66.5502
 20
-27.5721
 11
65.9608
 21
-26.9289
  0
LINE
  8
0
 10
65.9608
 20
-26.9289
 11
65.3176
 21
-26.3396
  0
LINE
  8
0
 10
65.3176
 20
-26.3396
 11
64.6255
 21
-25.8085
  0
LINE
  8
0
 10
64.6255
 20
-25.8085
 11
63.8897
 21
-25.3397
  0
LINE
  8
0
 10
63.8897
 20
-25.3397
 11
63.1159
 21
-24.9369
  0
LINE
  8
0
 10
63.1159
 20
-24.9369
 11
62.3099
 21
-24.6031
  0
LINE
  8
0
 10
62.3099
 20
-24.6031
 11
61.4779
 21
-24.3407
  0
LINE
  8
0
 10
61.4779
 20
-24.3407
 11
60.6262
 21
-24.1519
  0
LINE
  8
0
 10
60.6262
 20
-24.1519
 11
59.7613
 21
-24.0381
  0
LINE
  8
0
 10
59.7613
 20
-24.0381
 11
58.8897
 21
-24
  0
LINE
  8
0
 10
58.8897
 20
-24
 11
58.8897
 21
24
  0
LINE
  8
0
 10
58.8897
 20
24
 11
59.7613
 21
24.0381
  0
LINE
  8
0
 10
59.7613
 20
24.0381
 11
60.6262
 21
24.1519
  0
LINE
  8
0
 10
60.6262
 20
24.1519
 11
61.4779
 21
24.3407
  0
LINE
  8
0
 10
61.4779
 20
24.3407
 11
62.3099
 21
24.6031
  0
LINE
  8
0
 10
62.3099
 20
24.6031
 11
63.1159
 21
24.9369
  0
LINE
  8
0
 10
63.1159
 20
24.9369
 11
63.8897
 21
25.3397
  0
LINE
  8
0
 10
63.8897
 20
25.3397
 11
64.6255
 21
25.8085
  0
LINE
  8
0
 10
64.6255
 20
25.8085
 11
65.3176
 21
26.3396
  0
LINE
  8
0
 10
65.3176
 20
26.3396
 11
65.9608
 21
26.9289
  0
LINE
  8
0
 10
65.9608
 20
26.9289
 11
66.5502
 21
27.5721
  0
LINE
  8
0
 10
66.5502
 20
27.5721
 11
67.0812
 21
28.2642
  0
LINE
  8
0
 10
67.0812
 20
28.2642
 11
67.55
 21
29
  0
LINE
  8
0
 10
67.55
 20
29
 11
67.9528
 21
29.7738
  0
LINE
  8
0
 10
67.9528
 20
29.7738
 11
68.2867
 21
30.5798
  0
LINE
  8
0
 10
68.2867
 20
30.5798
 11
68.549
 21
31.4118
  0
LINE
  8
0
 10
68.549
 20
31.4118
 11
68.7378
 21
32.2635
  0
LINE
  8
0
 10
68.7378
 20
32.2635
 11
68.8517
 21
33.1284
  0
LINE
  8
0
 10
68.8517
 20
33.1284
 11
68.8897
 21
34
  0
LINE
  8
0
 10
68.8897
 20
34
 11
68.8517
 21
34.8716
  0
LINE
  8
0
 10
68.8517
 20
34.8716
 11
68.7378
 21
35.7365
  0
LINE
  8
0
 10
68.7378
 20
35.7365
 11
68.549
 21
36.5882
  0
LINE
  8
0
 10
68.549
 20
36.5882
 11
68.2867
 21
37.4202
  0
LINE
  8
0
 10
68.2867
 20
37.4202
 11
67.9528
 21
38.2262
  0
LINE
  8
0
 10
67.9528
 20
38.2262
 11
67.55
 21
39
  0
LINE
  8
0
 10
67.55
 20
39
 11
67.0812
 21
39.7358
  0
LINE
  8
0
 10
67.0812
 20
39.7358
 11
66.5502
 21
40.4279
  0
LINE
  8
0
 10
66.5502
 20
40.4279
 11
65.9608
 21
41.0711
  0
LINE
  8
0
 10
65.9608
 20
41.0711
 11
65.3176
 21
41.6604
  0
LINE
  8
0
 10
65.3176
 20
41.6604
 11
64.6255
 21
42.1915
  0
LINE
  8
0
 10
64.6255
 20
42.1915
 11
63.8897
 21
42.6603
  0
LINE
  8
0
 10
63.8897
 20
42.6603
 11
63.1159
 21
43.0631
  0
LINE
  8
0
 10
63.1159
 20
43.0631
 11
62.3099
 21
43.3969
  0
LINE
  8
0
 10
62.3099
 20
43.3969
 11
61.4779
 21
43.6593
  0
LINE
  8
0
 10
61.4779
 20
43.6593
 11
60.6262
 21
43.8481
  0
LINE
  8
0
 10
60.6262
 20
43.8481
 11
59.7613
 21
43.9619
  0
LINE
  8
0
 10
59.7613
 20
43.9619
 11
58.8897
 21
44
  0
LINE
  8
0
 10
58.8897
 20
44
 11
58.0182
 21
43.9619
  0
LINE
  8
0
 10
58.0182
 20
43.9619
 11
57.1532
 21
43.8481
  0
LINE
  8
0
 10
57.1532
 20
43.8481
 11
56.3015
 21
43.6593
  0
LINE
  8
0
 10
56.3015
 20
43.6593
 11
55.4695
 21
43.3969
  0
LINE
  8
0
 10
55.4695
 20
43.3969
 11
54.6635
 21
43.0631
  0
LINE
  8
0
 10
54.6635
 20
43.0631
 11
53.8897
 21
42.6603
  0
LINE
  8
0
 10
53.8897
 20
42.6603
 11
53.154
 21
42.1915
  0
LINE
  8
0
 10
53.154
 20
42.1915
 11
52.4619
 21
41.6604
  0
LINE
  8
0
 10
52.4619
 20
41.6604
 11
51.8187
 21
41.0711
  0
LINE
  8
0
 10
51.8187
 20
41.0711
 11
51.2293
 21
40.4279
  0
LINE
  8
0
 10
51.2293
 20
40.4279
 11
50.6982
 21
39.7358
  0
LINE
  8
0
 10
50.6982
 20
39.7358
 11
50.2295
 21
39
  0
LINE
  8
0
 10
50.2295
 20
39
 11
50.2295
 21
39
  0
LINE
  8
0
 10
50.2295
 20
39
 11
8.66025
 21
63
  0
LINE
  8
0
 10
8.66025
 20
63
 11
9.06308
 21
63.7738
  0
LINE
  8
0
 10
9.06308
 20
63.7738
 11
9.39693
 21
64.5798
  0
LINE
  8
0
 10
9.39693
 20
64.5798
 11
9.65926
 21
65.4118
  0
LINE
  8
0
 10
9.65926
 20
65.4118
 11
9.84808
 21
66.2635
  0
LINE
  8
0
 10
9.84808
 20
66.2635
 11
9.96195
 21
67.1284
  0
LINE
  8
0
 10
9.96195
 20
67.1284
 11
10
 21
68
  0
LINE
  8
0
 10
10
 20
68
 11
9.96195
 21
68.8716
  0
LINE
  8
0
 10
9.96195
 20
68.8716
 11
9.84808
 21
69.7365
  0
LINE
  8
0
 10
9.84808
 20
69.7365
 11
9.65926
 21
70.5882
  0
LINE
  8
0
 10
9.65926
 20
70.5882
 11
9.39693
 21
71.4202
  0
LINE
  8
0
 10
9.39693
 20
71.4202
 11
9.06308
 21
72.2262
  0
LINE
  8
0
 10
9.06308
 20
72.2262
 11
8.66025
 21
73
  0
LINE
  8
0
 10
8.66025
 20
73
 11
8.19152
 21
73.7358
  0
LINE
  8
0
 10
8.19152
 20
73.7358
 11
7.66044
 21
74.4279
  0
LINE
  8
0
 10
7.66044
 20
74.4279
 11
7.07107
 21
75.0711
  0
LINE
  8
0
 10
7.07107
 20
75.0711
 11
6.42788
 21
75.6604
  0
LINE
  8
0
 10
6.42788
 20
75.6604
 11
5.73576
 21
76.1915
  0
LINE
  8
0
 10
5.73576
 20
76.1915
 11
5
 21
76.6603
  0
LINE
  8
0
 10
5
 20
76.6603
 11
4.22618
 21
77.0631
  0
LINE
  8
0
 10
4.22618
 20
77.0631
 11
3.4202
 21
77.3969
  0
LINE
  8
0
 10
3.4202
 20
77.3969
 11
2.58819
 21
77.6593
  0
LINE
  8
0
 10
2.58819
 20
77.6593
 11
1.73648
 21
77.8481
  0
LINE
  8
0
 10
1.73648
 20
77.8481
 11
0.871557
 21
77.9619
  0
LINE
  8
0
 10
0.871557
 20
77.9619
 11
0
 21
78
  0
LINE
  8
0
 10
0
 20
78
 11
-0.871557
 21
77.9619
  0
LINE
  8
0
 10
-0.871557
 20
77.9619
 11
-1.73648
 21
77.8481
  0
LINE
  8
0
 10
-1.73648
 20
77.8481
 11
-2.58819
 21
77.6593
  0
LINE
  8
0
 10
-2.58819
 20
77.6593
 11
-3.4202
 21
77.3969
  0
LINE
  8
0
 10
-3.4202
 20
77.3969
 11
-4.22618
 21
77.0631
  0
LINE
  8
0
 10
-4.22618
 20
77.0631
 11
-5
 21
76.6603
  0
LINE
  8
0
 10
-5
 20
76.6603
 11
-5.73576
 21
76.1915
  0
LINE
  8
0
 10
-5.73576
 20
76.1915
 11
-6.42788
 21
75.6604
  0
LINE
  8
0
 10
-6.42788
 20
75.6604
 11
-7.07107
 21
75.0711
  0
LINE
  8
0
 10
-7.07107
 20
75.0711
 11
-7.66044
 21
74.4279
  0
LINE
  8
0
 10
-7.66044
 20
74.4279
 11
-8.19152
 21
73.7358
  0
LINE
  8
0
 10
-8.19152
 20
73.7358
 11
-8.66025
 21
73
  0
LINE
  8
0
 10
-8.66025
 20
73
 11
-9.06308
 21
72.2262
  0
LINE
  8
0
 10
-9.06308
 20
72.2262
 11
-9.39693
 21
71.4202
  0
LINE
  8
0
 10
-9.39693
 20
71.4202
 11
-9.65926
 21
70.5882
  0
LINE
  8
0
 10
-9.65926
 20
70.5882
 11
-9.84808
 21
69.7365
  0
LINE
  8
0
 10
-9.84808
 20
69.7365
 11
-9.96195
 21
68.8716
  0
LINE
  8
0
 10
-9.96195
 20
68.8716
 11
-10
 21
68
  0
LINE
  8
0
 10
-10
 20
68
 11
-9.96195
 21
67.1284
  0
LINE
  8
0
 10
-9.96195
 20
67.1284
 11
-9.84808
 21
66.2635
  0
LINE
  8
0
 10
-9.84808
 20
66.2635
 11
-9.65926
 21
65.4118
  0
LINE
  8
0
 10
-9.65926
 20
65.4118
 11
-9.39693
 21
64.5798
  0
LINE
  8
0
 10
-9.39693
 20
64.5798
 11
-9.06308
 21
63.7738
  0
LINE
  8
0
 10
-9.06308
 20
63.7738
 11
-8.66025
 21
63
  0
LINE
  8
0
 10
-8.66025
 20
63
 11
-50.2295
 21
39
  0
LINE
  8
0
 10
-50.2295
 20
39
 11
-50.6982
 21
39.7358
  0
LINE
  8
0
 10
-50.6982
 20
39.7358
 11
-51.2293
 21
40.4279
  0
LINE
  8
0
 10
-51.2293
 20
40.4279
 11
-51.8187
 21
41.0711
  0
LINE
  8
0
 10
-51.8187
 20
41.0711
 11
-52.4619
 21
41.6604
  0
LINE
  8
0
 10
-52.4619
 20
41.6604
 11
-53.154
 21
42.1915
  0
LINE
  8
0
 10
-53.154
 20
42.1915
 11
-53.8897
 21
42.6603
  0
LINE
  8
0
 10
-53.8897
 20
42.6603
 11
-54.6635
 21
43.0631
  0
LINE
  8
0
 10
-54.6635
 20
43.0631
 11
-55.4695
 21
43.3969
  0
LINE
  8
0
 10
-55.4695
 20
43.3969
 11
-56.3015
 21
43.6593
  0
LINE
  8
0
 10
-56.3015
 20
43.6593
 11
-57.1532
 21
43.8481
  0
LINE
  8
0
 10
-57.1532
 20
43.8481
 11
-58.0182
 21
43.9619
  0
LINE
  8
0
 10
-58.0182
 20
43.9619
 11
-58.8897
 21
44
  0
LINE
  8
0
 10
-58.8897
 20
44
 11
-59.7613
 21
43.9619
  0
LINE
  8
0
 10
-59.7613
 20
43.9619
 11
-60.6262
 21
43.8481
  0
LINE
  8
0
 10
-60.6262
 20
43.8481
 11
-61.4779
 21
43.6593
  0
LINE
  8
0
 10
-61.4779
 20
43.6593
 11
-62.3099
 21
43.3969
  0
LINE
  8
0
 10
-62.3099
 20
43.3969
 11
-63.1159
 21
43.0631
  0
LINE
  8
0
 10
-63.1159
 20
43.0631
 11
-63.8897
 21
42.6603
  0
LINE
  8
0
 10
-63.8897
 20
42.6603
 11
-64.6255
 21
42.1915
  0
LINE
  8
0
 10
-64.6255
 20
42.1915
 11
-65.3176
 21
41.6604
  0
LINE
  8
0
 10
-65.3176
 20
41.6604
 11
-65.9608
 21
41.0711
  0
LINE
  8
0
 10
-65.9608
 20
41.0711
 11
-66.5502
 21
40.4279
  0
LINE
  8
0
 10
-66.5502
 20
40.4279
 11
-67.0812
 21
39.7358
  0
LINE
  8
0
 10
-67.0812
 20
39.7358
 11
-67.55
 21
39
  0
LINE
  8
0
 10
-67.55
 20
39
 11
-67.9528
 21
38.2262
  0
LINE
  8
0
 10
-67.9528
 20
38.2262
 11
-68.2867
 21
37.4202
  0
LINE
  8
0
 10
-68.2867
 20
37.4202
 11
-68.549
 21
36.5882
  0
LINE
  8
0
 10
-68.549
 20
36.5882
 11
-68.7378
 21
35.7365
  0
LINE
  8
0
 10
-68.7378
 20
35.7365
 11
-68.8517
 21
34.8716
  0
LINE
  8
0
 10
-68.8517
 20
34.8716
 11
-68.8897
 21
34
  0
LINE
  8
0
 10
-68.8897
 20
34
 11
-68.8517
 21
33.1284
  0
LINE
  8
0
 10
-68.8517
 20
33.1284
 11
-68.7378
 21
32.2635
  0
LINE
  8
0
 10
-68.7378
 20
32.2635
 11
-68.549
 21
31.4118
  0
LINE
  8
0
 10
-68.549
 20
31.4118
 11
-68.2867
 21
30.5798
  0
LINE
  8
0
 10
-68.2867
 20
30.5798
 11
-67.9528
 21
29.7738
  0
LINE
  8
0
 10
-67.9528
 20
29.7738
 11
-67.55
 21
29
  0
LINE
  8
0
 10
-67.55
 20
29
 11
-67.0812
 21
28.2642
  0
LINE
  8
0
 10
-67.0812
 20
28.2642
 11
-66.5502
 21
27.5721
  0
LINE
  8
0
 10
-66.5502
 20
27.5721
 11
-65.9608
 21
26.9289
  0
LINE
  8
0
 10
-65.9608
 20
26.9289
 11
-65.3176
 21
26.3396
  0
LINE
  8
0
 10
-65.3176
 20
26.3396
 11
-64.6255
 21
25.8085
  0
LINE
  8
0
 10
-64.6255
 20
25.8085
 11
-63.8897
 21
25.3397
  0
LINE
  8
0
 10
-63.8897
 20
25.3397
 11
-63.1159
 21
24.9369
  0
LINE
  8
0
 10
-63.1159
 20
24.9369
 11
-62.3099
 21
24.6031
  0
LINE
  8
0
 10
-62.3099
 20
24.6031
 11
-61.4779
 21
24.3407
  0
LINE
  8
0
 10
-61.4779
 20
24.3407
 11
-60.6262
 21
24.1519
  0
LINE
  8
0
 10
-60.6262
 20
24.1519
 11
-59.7613
 21
24.0381
  0
LINE
  8
0
 10
-59.7613
 20
24.0381
 11
-58.8897
 21
24
  0
LINE
  8
0
 10
-58.8897
 20
24
 11
-58.8897
 21
-24
  0
LINE
  8
0
 10
-58.8897
 20
-24
 11
-59.7613
 21
-24.0381
  0
LINE
  8
0
 10
-59.7613
 20
-24.0381
 11
-60.6262
 21
-24.1519
  0
LINE
  8
0
 10
-60.6262
 20
-24.1519
 11
-61.4779
 21
-24.3407
  0
LINE
  8
0
 10
-61.4779
 20
-24.3407
 11
-62.3099
 21
-24.6031
  0
LINE
  8
0
 10
-62.3099
 20
-24.6031
 11
-63.1159
 21
-24.9369
  0
LINE
  8
0
 10
-63.1159
 20
-24.9369
 11
-63.8897
 21
-25.3397
  0
LINE
  8
0
 10
-63.8897
 20
-25.3397
 11
-64.6255
 21
-25.8085
  0
LINE
  8
0
 10
-64.6255
 20
-25.8085
 11
-65.3176
 21
-26.3396
  0
LINE
  8
0
 10
-65.3176
 20
-26.3396
 11
-65.9608
 21
-26.9289
  0
LINE
  8
0
 10
-65.9608
 20
-26.9289
 11
-66.5502
 21
-27.5721
  0
LINE
  8
0
 10
-66.5502
 20
-27.5721
 11
-67.0812
 21
-28.2642
  0
LINE
  8
0
 10
-67.0812
 20
-28.2642
 11
-67.55
 21
-29
  0
LINE
  8
0
 10
-67.55
 20
-29
 11
-67.9528
 21
-29.7738
  0
LINE
  8
0
 10
-67.9528
 20
-29.7738
 11
-68.2867
 21
-30.5798
  0
LINE
  8
0
 10
-68.2867
 20
-30.5798
 11
-68.549
 21
-31.4118
  0
LINE
  8
0
 10
-68.549
 20
-31.4118
 11
-68.7378
 21
-32.2635
  0
LINE
  8
0
 10
-68.7378
 20
-32.2635
 11
-68.8517
 21
-33.1284
  0
LINE
  8
0
 10
-68.8517
 20
-33.1284
 11
-68.8897
 21
-34
  0
LINE
  8
0
 10
-64.0147
 20
-34
 11
-63.9369
 21
-33.1101
  0
LINE
  8
0
 10
-63.9369
 20
-33.1101
 11
-63.7057
 21
-32.2471
  0
LINE
  8
0
 10
-63.7057
 20
-32.2471
 11
-63.3281
 21
-31.4375
  0
LINE
  8
0
 10
-63.3281
 20
-31.4375
 11
-62.8157
 21
-30.7057
  0
LINE
  8
0
 10
-62.8157
 20
-30.7057
 11
-62.184
 21
-30.074
  0
LINE
  8
0
 10
-62.184
 20
-30.074
 11
-61.4522
 21
-29.5616
  0
LINE
  8
0
 10
-61.4522
 20
-29.5616
 11
-60.6426
 21
-29.1841
  0
LINE
  8
0
 10
-60.6426
 20
-29.1841
 11
-59.7797
 21
-28.9529
  0
LINE
  8
0
 10
-59.7797
 20
-28.9529
 11
-58.8897
 21
-28.875
  0
LINE
  8
0
 10
-58.8897
 20
-28.875
 11
-57.9998
 21
-28.9529
  0
LINE
  8
0
 10
-57.9998
 20
-28.9529
 11
-57.1369
 21
-29.1841
  0
LINE
  8
0
 10
-57.1369
 20
-29.1841
 11
-56.3272
 21
-29.5616
  0
LINE
  8
0
 10
-56.3272
 20
-29.5616
 11
-55.5954
 21
-30.074
  0
LINE
  8
0
 10
-55.5954
 20
-30.074
 11
-54.9637
 21
-30.7057
  0
LINE
  8
0
 10
-54.9637
 20
-30.7057
 11
-54.4513
 21
-31.4375
  0
LINE
  8
0
 10
-54.4513
 20
-31.4375
 11
-54.0738
 21
-32.2471
  0
LINE
  8
0
 10
-54.0738
 20
-32.2471
 11
-53.8426
 21
-33.1101
  0
LINE
  8
0
 10
-53.8426
 20
-33.1101
 11
-53.7647
 21
-34
  0
LINE
  8
0
 10
-53.7647
 20
-34
 11
-53.8426
 21
-34.8899
  0
LINE
  8
0
 10
-53.8426
 20
-34.8899
 11
-54.0738
 21
-35.7529
  0
LINE
  8
0
 10
-54.0738
 20
-35.7529
 11
-54.4513
 21
-36.5625
  0
LINE
  8
0
 10
-54.4513
 20
-36.5625
 11
-54.9637
 21
-37.2943
  0
LINE
  8
0
 10
-54.9637
 20
-37.2943
 11
-55.5954
 21
-37.926
  0
LINE
  8
0
 10
-55.5954
 20
-37.926
 11
-56.3272
 21
-38.4384
  0
LINE
  8
0
 10
-56.3272
 20
-38.4384
 11
-57.1369
 21
-38.8159
  0
LINE
  8
0
 10
-57.1369
 20
-38.8159
 11
-57.9998
 21
-39.0471
  0
LINE
  8
0
 10
-57.9998
 20
-39.0471
 11
-58.8897
 21
-39.125
  0
LINE
  8
0
 10
-58.8897
 20
-39.125
 11
-59.7797
 21
-39.0471
  0
LINE
  8
0
 10
-59.7797
 20
-39.0471
 11
-60.6426
 21
-38.8159
  0
LINE
  8
0
 10
-60.6426
 20
-38.8159
 11
-61.4522
 21
-38.4384
  0
LINE
  8
0
 10
-61.4522
 20
-38.4384
 11
-62.184
 21
-37.926
  0
LINE
  8
0
 10
-62.184
 20
-37.926
 11
-62.8157
 21
-37.2943
  0
LINE
  8
0
 10
-62.8157
 20
-37.2943
 11
-63.3281
 21
-36.5625
  0
LINE
  8
0
 10
-63.3281
 20
-36.5625
 11
-63.7057
 21
-35.7529
  0
LINE
  8
0
 10
-63.7057
 20
-35.7529
 11
-63.9369
 21
-34.8899
  0
LINE
  8
0
 10
-63.9369
 20
-34.8899
 11
-64.0147
 21
-34
  0
LINE
  8
0
 10
-64.0147
 20
34
 11
-63.9369
 21
34.8899
  0
LINE
  8
0
 10
-63.9369
 20
34.8899
 11
-63.7057
 21
35.7529
  0
LINE
  8
0
 10
-63.7057
 20
35.7529
 11
-63.3281
 21
36.5625
  0
LINE
  8
0
 10
-63.3281
 20
36.5625
 11
-62.8157
 21
37.2943
  0
LINE
  8
0
 10
-62.8157
 20
37.2943
 11
-62.184
 21
37.926
  0
LINE
  8
0
 10
-62.184
 20
37.926
 11
-61.4522
 21
38.4384
  0
LINE
  8
0
 10
-61.4522
 20
38.4384
 11
-60.6426
 21
38.8159
  0
LINE
  8
0
 10
-60.6426
 20
38.8159
 11
-59.7797
 21
39.0471
  0
LINE
  8
0
 10
-59.7797
 20
39.0471
 11
-58.8897
 21
39.125
  0
LINE
  8
0
 10
-58.8897
 20
39.125
 11
-57.9998
 21
39.0471
  0
LINE
  8
0
 10
-57.9998
 20
39.0471
 11
-57.1369
 21
38.8159
  0
LINE
  8
0
 10
-57.1369
 20
38.8159
 11
-56.3272
 21
38.4384
  0
LINE
  8
0
 10
-56.3272
 20
38.4384
 11
-55.5954
 21
37.926
  0
LINE
  8
0
 10
-55.5954
 20
37.926
 11
-54.9637
 21
37.2943
  0
LINE
  8
0
 10
-54.9637
 20
37.2943
 11
-54.4513
 21
36.5625
  0
LINE
  8
0
 10
-54.4513
 20
36.5625
 11
-54.0738
 21
35.7529
  0
LINE
  8
0
 10
-54.0738
 20
35.7529
 11
-53.8426
 21
34.8899
  0
LINE
  8
0
 10
-53.8426
 20
34.8899
 11
-53.7647
 21
34
  0
LINE
  8
0
 10
-53.7647
 20
34
 11
-53.8426
 21
33.1101
  0
LINE
  8
0
 10
-53.8426
 20
33.1101
 11
-54.0738
 21
32.2471
  0
LINE
  8
0
 10
-54.0738
 20
32.2471
 11
-54.4513
 21
31.4375
  0
LINE
  8
0
 10
-54.4513
 20
31.4375
 11
-54.9637
 21
30.7057
  0
LINE
  8
0
 10
-54.9637
 20
30.7057
 11
-55.5954
 21
30.074
  0
LINE
  8
0
 10
-55.5954
 20
30.074
 11
-56.3272
 21
29.5616
  0
LINE
  8
0
 10
-56.3272
 20
29.5616
 11
-57.1369
 21
29.1841
  0
LINE
  8
0
 10
-57.1369
 20
29.1841
 11
-57.9998
 21
28.9529
  0
LINE
  8
0
 10
-57.9998
 20
28.9529
 11
-58.8897
 21
28.875
  0
LINE
  8
0
 10
-58.8897
 20
28.875
 11
-59.7797
 21
28.9529
  0
LINE
  8
0
 10
-59.7797
 20
28.9529
 11
-60.6426
 21
29.1841
  0
LINE
  8
0
 10
-60.6426
 20
29.1841
 11
-61.4522
 21
29.5616
  0
LINE
  8
0
 10
-61.4522
 20
29.5616
 11
-62.184
 21
30.074
  0
LINE
  8
0
 10
-62.184
 20
30.074
 11
-62.8157
 21
30.7057
  0
LINE
  8
0
 10
-62.8157
 20
30.7057
 11
-63.3281
 21
31.4375
  0
LINE
  8
0
 10
-63.3281
 20
31.4375
 11
-63.7057
 21
32.2471
  0
LINE
  8
0
 10
-63.7057
 20
32.2471
 11
-63.9369
 21
33.1101
  0
LINE
  8
0
 10
-63.9369
 20
33.1101
 11
-64.0147
 21
34
  0
LINE
  8
0
 10
-51.1
 20
0
 11
-51.0757
 21
0.277837
  0
LINE
  8
0
 10
-51.0757
 20
0.277837
 11
-51.0035
 21
0.547232
  0
LINE
  8
0
 10
-51.0035
 20
0.547232
 11
-50.8856
 21
0.799999
  0
LINE
  8
0
 10
-50.8856
 20
0.799999
 11
-50.7257
 21
1.02846
  0
LINE
  8
0
 10
-50.7257
 20
1.02846
 11
-50.5285
 21
1.22567
  0
LINE
  8
0
 10
-50.5285
 20
1.22567
 11
-50.3
 21
1.38564
  0
LINE
  8
0
 10
-50.3
 20
1.38564
 11
-50.0472
 21
1.50351
  0
LINE
  8
0
 10
-50.0472
 20
1.50351
 11
-49.7778
 21
1.57569
  0
LINE
  8
0
 10
-49.7778
 20
1.57569
 11
-49.5
 21
1.6
  0
LINE
  8
0
 10
-49.5
 20
1.6
 11
-49.2222
 21
1.57569
  0
LINE
  8
0
 10
-49.2222
 20
1.57569
 11
-48.9528
 21
1.50351
  0
LINE
  8
0
 10
-48.9528
 20
1.50351
 11
-48.7
 21
1.38564
  0
LINE
  8
0
 10
-48.7
 20
1.38564
 11
-48.4715
 21
1.22567
  0
LINE
  8
0
 10
-48.4715
 20
1.22567
 11
-48.2743
 21
1.02846
  0
LINE
  8
0
 10
-48.2743
 20
1.02846
 11
-48.1144
 21
0.799999
  0
LINE
  8
0
 10
-48.1144
 20
0.799999
 11
-47.9965
 21
0.547232
  0
LINE
  8
0
 10
-47.9965
 20
0.547232
 11
-47.9243
 21
0.277837
  0
LINE
  8
0
 10
-47.9243
 20
0.277837
 11
-47.9
 21
0
  0
LINE
  8
0
 10
-47.9
 20
0
 11
-47.9243
 21
-0.277837
  0
LINE
  8
0
 10
-47.9243
 20
-0.277837
 11
-47.9965
 21
-0.547232
  0
LINE
  8
0
 10
-47.9965
 20
-0.547232
 11
-48.1144
 21
-0.799999
  0
LINE
  8
0
 10
-48.1144
 20
-0.799999
 11
-48.2743
 21
-1.02846
  0
LINE
  8
0
 10
-48.2743
 20
-1.02846
 11
-48.4715
 21
-1.22567
  0
LINE
  8
0
 10
-48.4715
 20
-1.22567
 11
-48.7
 21
-1.38564
  0
LINE
  8
0
 10
-48.7
 20
-1.38564
 11
-48.9528
 21
-1.50351
  0
LINE
  8
0
 10
-48.9528
 20
-1.50351
 11
-49.2222
 21
-1.57569
  0
LINE
  8
0
 10
-49.2222
 20
-1.57569
 11
-49.5
 21
-1.6
  0
LINE
  8
0
 10
-49.5
 20
-1.6
 11
-49.7778
 21
-1.57569
  0
LINE
  8
0
 10
-49.7778
 20
-1.57569
 11
-50.0472
 21
-1.50351
  0
LINE
  8
0
 10
-50.0472
 20
-1.50351
 11
-50.3
 21
-1.38564
  0
LINE
  8
0
 10
-50.3
 20
-1.38564
 11
-50.5285
 21
-1.22567
  0
LINE
  8
0
 10
-50.5285
 20
-1.22567
 11
-50.7257
 21
-1.02846
  0
LINE
  8
0
 10
-50.7257
 20
-1.02846
 11
-50.8856
 21
-0.799999
  0
LINE
  8
0
 10
-50.8856
 20
-0.799999
 11
-51.0035
 21
-0.547232
  0
LINE
  8
0
 10
-51.0035
 20
-0.547232
 11
-51.0757
 21
-0.277837
  0
LINE
  8
0
 10
-51.0757
 20
-0.277837
 11
-51.1
 21
0
  0
LINE
  8
0
 10
-46
 20
-17
 11
-45.9848
 21
-16.8264
  0
LINE
  8
0
 10
-45.9848
 20
-16.8264
 11
-45.9397
 21
-16.658
  0
LINE
  8
0
 10
-45.9397
 20
-16.658
 11
-45.866
 21
-16.5
  0
LINE
  8
0
 10
-45.866
 20
-16.5
 11
-45.766
 21
-16.3572
  0
LINE
  8
0
 10
-45.766
 20
-16.3572
 11
-45.6428
 21
-16.234
  0
LINE
  8
0
 10
-45.6428
 20
-16.234
 11
-45.5
 21
-16.134
  0
LINE
  8
0
 10
-45.5
 20
-16.134
 11
-45.342
 21
-16.0603
  0
LINE
  8
0
 10
-45.342
 20
-16.0603
 11
-45.1736
 21
-16.0152
  0
LINE
  8
0
 10
-45.1736
 20
-16.0152
 11
-45
 21
-16
  0
LINE
  8
0
 10
-45
 20
-16
 11
-44.8264
 21
-16.0152
  0
LINE
  8
0
 10
-44.8264
 20
-16.0152
 11
-44.658
 21
-16.0603
  0
LINE
  8
0
 10
-44.658
 20
-16.0603
 11
-44.5
 21
-16.134
  0
LINE
  8
0
 10
-44.5
 20
-16.134
 11
-44.3572
 21
-16.234
  0
LINE
  8
0
 10
-44.3572
 20
-16.234
 11
-44.234
 21
-16.3572
  0
LINE
  8
0
 10
-44.234
 20
-16.3572
 11
-44.134
 21
-16.5
  0
LINE
  8
0
 10
-44.134
 20
-16.5
 11
-44.0603
 21
-16.658
  0
LINE
  8
0
 10
-44.0603
 20
-16.658
 11
-44.0152
 21
-16.8264
  0
LINE
  8
0
 10
-44.0152
 20
-16.8264
 11
-44
 21
-17
  0
LINE
  8
0
 10
-44
 20
-17
 11
-44.0152
 21
-17.1736
  0
LINE
  8
0
 10
-44.0152
 20
-17.1736
 11
-44.0603
 21
-17.342
  0
LINE
  8
0
 10
-44.0603
 20
-17.342
 11
-44.134
 21
-17.5
  0
LINE
  8
0
 10
-44.134
 20
-17.5
 11
-44.234
 21
-17.6428
  0
LINE
  8
0
 10
-44.234
 20
-17.6428
 11
-44.3572
 21
-17.766
  0
LINE
  8
0
 10
-44.3572
 20
-17.766
 11
-44.5
 21
-17.866
  0
LINE
  8
0
 10
-44.5
 20
-17.866
 11
-44.658
 21
-17.9397
  0
LINE
  8
0
 10
-44.658
 20
-17.9397
 11
-44.8264
 21
-17.9848
  0
LINE
  8
0
 10
-44.8264
 20
-17.9848
 11
-45
 21
-18
  0
LINE
  8
0
 10
-45
 20
-18
 11
-45.1736
 21
-17.9848
  0
LINE
  8
0
 10
-45.1736
 20
-17.9848
 11
-45.342
 21
-17.9397
  0
LINE
  8
0
 10
-45.342
 20
-17.9397
 11
-45.5
 21
-17.866
  0
LINE
  8
0
 10
-45.5
 20
-17.866
 11
-45.6428
 21
-17.766
  0
LINE
  8
0
 10
-45.6428
 20
-17.766
 11
-45.766
 21
-17.6428
  0
LINE
  8
0
 10
-45.766
 20
-17.6428
 11
-45.866
 21
-17.5
  0
LINE
  8
0
 10
-45.866
 20
-17.5
 11
-45.9397
 21
-17.342
  0
LINE
  8
0
 10
-45.9397
 20
-17.342
 11
-45.9848
 21
-17.1736
  0
LINE
  8
0
 10
-45.9848
 20
-17.1736
 11
-46
 21
-17
  0
LINE
  8
0
 10
-46
 20
17
 11
-45.9848
 21
17.1736
  0
LINE
  8
0
 10
-45.9848
 20
17.1736
 11
-45.9397
 21
17.342
  0
LINE
  8
0
 10
-45.9397
 20
17.342
 11
-45.866
 21
17.5
  0
LINE
  8
0
 10
-45.866
 20
17.5
 11
-45.766
 21
17.6428
  0
LINE
  8
0
 10
-45.766
 20
17.6428
 11
-45.6428
 21
17.766
  0
LINE
  8
0
 10
-45.6428
 20
17.766
 11
-45.5
 21
17.866
  0
LINE
  8
0
 10
-45.5
 20
17.866
 11
-45.342
 21
17.9397
  0
LINE
  8
0
 10
-45.342
 20
17.9397
 11
-45.1736
 21
17.9848
  0
LINE
  8
0
 10
-45.1736
 20
17.9848
 11
-45
 21
18
  0
LINE
  8
0
 10
-45
 20
18
 11
-44.8264
 21
17.9848
  0
LINE
  8
0
 10
-44.8264
 20
17.9848
 11
-44.658
 21
17.9397
  0
LINE
  8
0
 10
-44.658
 20
17.9397
 11
-44.5
 21
17.866
  0
LINE
  8
0
 10
-44.5
 20
17.866
 11
-44.3572
 21
17.766
  0
LINE
  8
0
 10
-44.3572
 20
17.766
 11
-44.234
 21
17.6428
  0
LINE
  8
0
 10
-44.234
 20
17.6428
 11
-44.134
 21
17.5
  0
LINE
  8
0
 10
-44.134
 20
17.5
 11
-44.0603
 21
17.342
  0
LINE
  8
0
 10
-44.0603
 20
17.342
 11
-44.0152
 21
17.1736
  0
LINE
  8
0
 10
-44.0152
 20
17.1736
 11
-44
 21
17
  0
LINE
  8
0
 10
-44
 20
17
 11
-44.0152
 21
16.8264
  0
LINE
  8
0
 10
-44.0152
 20
16.8264
 11
-44.0603
 21
16.658
  0
LINE
  8
0
 10
-44.0603
 20
16.658
 11
-44.134
 21
16.5
  0
LINE
  8
0
 10
-44.134
 20
16.5
 11
-44.234
 21
16.3572
  0
LINE
  8
0
 10
-44.234
 20
16.3572
 11
-44.3572
 21
16.234
  0
LINE
  8
0
 10
-44.3572
 20
16.234
 11
-44.5
 21
16.134
  0
LINE
  8
0
 10
-44.5
 20
16.134
 11
-44.658
 21
16.0603
  0
LINE
  8
0
 10
-44.658
 20
16.0603
 11
-44.8264
 21
16.0152
  0
LINE
  8
0
 10
-44.8264
 20
16.0152
 11
-45
 21
16
  0
LINE
  8
0
 10
-45
 20
16
 11
-45.1736
 21
16.0152
  0
LINE
  8
0
 10
-45.1736
 20
16.0152
 11
-45.342
 21
16.0603
  0
LINE
  8
0
 10
-45.342
 20
16.0603
 11
-45.5
 21
16.134
  0
LINE
  8
0
 10
-45.5
 20
16.134
 11
-45.6428
 21
16.234
  0
LINE
  8
0
 10
-45.6428
 20
16.234
 11
-45.766
 21
16.3572
  0
LINE
  8
0
 10
-45.766
 20
16.3572
 11
-45.866
 21
16.5
  0
LINE
  8
0
 10
-45.866
 20
16.5
 11
-45.9397
 21
16.658
  0
LINE
  8
0
 10
-45.9397
 20
16.658
 11
-45.9848
 21
16.8264
  0
LINE
  8
0
 10
-45.9848
 20
16.8264
 11
-46
 21
17
  0
LINE
  8
0
 10
-44.1673
 20
-25.5
 11
-44.1673
 21
-19.3552
  0
LINE
  8
0
 10
-44.1673
 20
-19.3552
 11
-44.1449
 21
-19.3492
  0
LINE
  8
0
 10
-44.1449
 20
-19.3492
 11
-43.75
 21
-19.1651
  0
LINE
  8
0
 10
-43.75
 20
-19.1651
 11
-43.393
 21
-18.9151
  0
LINE
  8
0
 10
-43.393
 20
-18.9151
 11
-43.0849
 21
-18.607
  0
LINE
  8
0
 10
-43.0849
 20
-18.607
 11
-42.8349
 21
-18.25
  0
LINE
  8
0
 10
-42.8349
 20
-18.25
 11
-42.7184
 21
-18
  0
LINE
  8
0
 10
-42.7184
 20
-18
 11
-31.2816
 21
-18
  0
LINE
  8
0
 10
-31.2816
 20
-18
 11
-31.1651
 21
-18.25
  0
LINE
  8
0
 10
-31.1651
 20
-18.25
 11
-30.9151
 21
-18.607
  0
LINE
  8
0
 10
-30.9151
 20
-18.607
 11
-30.607
 21
-18.9151
  0
LINE
  8
0
 10
-30.607
 20
-18.9151
 11
-30.25
 21
-19.1651
  0
LINE
  8
0
 10
-30.25
 20
-19.1651
 11
-29.8551
 21
-19.3492
  0
LINE
  8
0
 10
-29.8551
 20
-19.3492
 11
-29.4341
 21
-19.462
  0
LINE
  8
0
 10
-29.4341
 20
-19.462
 11
-29
 21
-19.5
  0
LINE
  8
0
 10
-29
 20
-19.5
 11
-28.5659
 21
-19.462
  0
LINE
  8
0
 10
-28.5659
 20
-19.462
 11
-28.1449
 21
-19.3492
  0
LINE
  8
0
 10
-28.1449
 20
-19.3492
 11
-27.75
 21
-19.1651
  0
LINE
  8
0
 10
-27.75
 20
-19.1651
 11
-27.393
 21
-18.9151
  0
LINE
  8
0
 10
-27.393
 20
-18.9151
 11
-27.0849
 21
-18.607
  0
LINE
  8
0
 10
-27.0849
 20
-18.607
 11
-26.8349
 21
-18.25
  0
LINE
  8
0
 10
-26.8349
 20
-18.25
 11
-26.7184
 21
-18
  0
LINE
  8
0
 10
-26.7184
 20
-18
 11
-23.3774
 21
-18
  0
LINE
  8
0
 10
-23.3774
 20
-18
 11
-23.462
 21
-18.3159
  0
LINE
  8
0
 10
-23.462
 20
-18.3159
 11
-23.5
 21
-18.75
  0
LINE
  8
0
 10
-23.5
 20
-18.75
 11
-23.462
 21
-19.1841
  0
LINE
  8
0
 10
-23.462
 20
-19.1841
 11
-23.3492
 21
-19.6051
  0
LINE
  8
0
 10
-23.3492
 20
-19.6051
 11
-23.1651
 21
-20
  0
LINE
  8
0
 10
-23.1651
 20
-20
 11
-23
 21
-20.2357
  0
LINE
  8
0
 10
-23
 20
-20.2357
 11
-23
 21
-36.7643
  0
LINE
  8
0
 10
-23
 20
-36.7643
 11
-23.1651
 21
-37
  0
LINE
  8
0
 10
-23.1651
 20
-37
 11
-23.3492
 21
-37.3949
  0
LINE
  8
0
 10
-23.3492
 20
-37.3949
 11
-23.3781
 21
-37.5027
  0
LINE
  8
0
 10
-23.3781
 20
-37.5027
 11
-44.1673
 21
-25.5
  0
LINE
  8
0
 10
-44.1673
 20
-12
 11
-44.1673
 21
12
  0
LINE
  8
0
 10
-44.1673
 20
12
 11
-23
 21
12
  0
LINE
  8
0
 10
-23
 20
12
 11
-23
 21
-12
  0
LINE
  8
0
 10
-23
 20
-12
 11
-44.1673
 21
-12
  0
LINE
  8
0
 10
-44.1673
 20
19.3552
 11
-44.1673
 21
25.5
  0
LINE
  8
0
 10
-44.1673
 20
25.5
 11
-23.3781
 21
37.5027
  0
LINE
  8
0
 10
-23.3781
 20
37.5027
 11
-23.3492
 21
37.3949
  0
LINE
  8
0
 10
-23.3492
 20
37.3949
 11
-23.1651
 21
37
  0
LINE
  8
0
 10
-23.1651
 20
37
 11
-23
 21
36.7643
  0
LINE
  8
0
 10
-23
 20
36.7643
 11
-23
 21
20.2357
  0
LINE
  8
0
 10
-23
 20
20.2357
 11
-23.1651
 21
20
  0
LINE
  8
0
 10
-23.1651
 20
20
 11
-23.3492
 21
19.6051
  0
LINE
  8
0
 10
-23.3492
 20
19.6051
 11
-23.462
 21
19.1841
  0
LINE
  8
0
 10
-23.462
 20
19.1841
 11
-23.5
 21
18.75
  0
LINE
  8
0
 10
-23.5
 20
18.75
 11
-23.462
 21
18.3159
  0
LINE
  8
0
 10
-23.462
 20
18.3159
 11
-23.3774
 21
18
  0
LINE
  8
0
 10
-23.3774
 20
18
 11
-26.7184
 21
18
  0
LINE
  8
0
 10
-26.7184
 20
18
 11
-26.8349
 21
18.25
  0
LINE
  8
0
 10
-26.8349
 20
18.25
 11
-27.0849
 21
18.607
  0
LINE
  8
0
 10
-27.0849
 20
18.607
 11
-27.393
 21
18.9151
  0
LINE
  8
0
 10
-27.393
 20
18.9151
 11
-27.75
 21
19.1651
  0
LINE
  8
0
 10
-27.75
 20
19.1651
 11
-28.1449
 21
19.3492
  0
LINE
  8
0
 10
-28.1449
 20
19.3492
 11
-28.5659
 21
19.462
  0
LINE
  8
0
 10
-28.5659
 20
19.462
 11
-29
 21
19.5
  0
LINE
  8
0
 10
-29
 20
19.5
 11
-29.4341
 21
19.462
  0
LINE
  8
0
 10
-29.4341
 20
19.462
 11
-29.8551
 21
19.3492
  0
LINE
  8
0
 10
-29.8551
 20
19.3492
 11
-30.25
 21
19.1651
  0
LINE
  8
0
 10
-30.25
 20
19.1651
 11
-30.607
 21
18.9151
  0
LINE
  8
0
 10
-30.607
 20
18.9151
 11
-30.9151
 21
18.607
  0
LINE
  8
0
 10
-30.9151
 20
18.607
 11
-31.1651
 21
18.25
  0
LINE
  8
0
 10
-31.1651
 20
18.25
 11
-31.2816
 21
18
  0
LINE
  8
0
 10
-31.2816
 20
18
 11
-42.7184
 21
18
  0
LINE
  8
0
 10
-42.7184
 20
18
 11
-42.8349
 21
18.25
  0
LINE
  8
0
 10
-42.8349
 20
18.25
 11
-43.0849
 21
18.607
  0
LINE
  8
0
 10
-43.0849
 20
18.607
 11
-43.393
 21
18.9151
  0
LINE
  8
0
 10
-43.393
 20
18.9151
 11
-43.75
 21
19.1651
  0
LINE
  8
0
 10
-43.75
 20
19.1651
 11
-44.1449
 21
19.3492
  0
LINE
  8
0
 10
-44.1449
 20
19.3492
 11
-44.1673
 21
19.3552
  0
LINE
  8
0
 10
-30
 20
-17
 11
-29.9848
 21
-16.8264
  0
LINE
  8
0
 10
-29.9848
 20
-16.8264
 11
-29.9397
 21
-16.658
  0
LINE
  8
0
 10
-29.9397
 20
-16.658
 11
-29.866
 21
-16.5
  0
LINE
  8
0
 10
-29.866
 20
-16.5
 11
-29.766
 21
-16.3572
  0
LINE
  8
0
 10
-29.766
 20
-16.3572
 11
-29.6428
 21
-16.234
  0
LINE
  8
0
 10
-29.6428
 20
-16.234
 11
-29.5
 21
-16.134
  0
LINE
  8
0
 10
-29.5
 20
-16.134
 11
-29.342
 21
-16.0603
  0
LINE
  8
0
 10
-29.342
 20
-16.0603
 11
-29.1736
 21
-16.0152
  0
LINE
  8
0
 10
-29.1736
 20
-16.0152
 11
-29
 21
-16
  0
LINE
  8
0
 10
-29
 20
-16
 11
-28.8264
 21
-16.0152
  0
LINE
  8
0
 10
-28.8264
 20
-16.0152
 11
-28.658
 21
-16.0603
  0
LINE
  8
0
 10
-28.658
 20
-16.0603
 11
-28.5
 21
-16.134
  0
LINE
  8
0
 10
-28.5
 20
-16.134
 11
-28.3572
 21
-16.234
  0
LINE
  8
0
 10
-28.3572
 20
-16.234
 11
-28.234
 21
-16.3572
  0
LINE
  8
0
 10
-28.234
 20
-16.3572
 11
-28.134
 21
-16.5
  0
LINE
  8
0
 10
-28.134
 20
-16.5
 11
-28.0603
 21
-16.658
  0
LINE
  8
0
 10
-28.0603
 20
-16.658
 11
-28.0152
 21
-16.8264
  0
LINE
  8
0
 10
-28.0152
 20
-16.8264
 11
-28
 21
-17
  0
LINE
  8
0
 10
-28
 20
-17
 11
-28.0152
 21
-17.1736
  0
LINE
  8
0
 10
-28.0152
 20
-17.1736
 11
-28.0603
 21
-17.342
  0
LINE
  8
0
 10
-28.0603
 20
-17.342
 11
-28.134
 21
-17.5
  0
LINE
  8
0
 10
-28.134
 20
-17.5
 11
-28.234
 21
-17.6428
  0
LINE
  8
0
 10
-28.234
 20
-17.6428
 11
-28.3572
 21
-17.766
  0
LINE
  8
0
 10
-28.3572
 20
-17.766
 11
-28.5
 21
-17.866
  0
LINE
  8
0
 10
-28.5
 20
-17.866
 11
-28.658
 21
-17.9397
  0
LINE
  8
0
 10
-28.658
 20
-17.9397
 11
-28.8264
 21
-17.9848
  0
LINE
  8
0
 10
-28.8264
 20
-17.9848
 11
-29
 21
-18
  0
LINE
  8
0
 10
-29
 20
-18
 11
-29.1736
 21
-17.9848
  0
LINE
  8
0
 10
-29.1736
 20
-17.9848
 11
-29.342
 21
-17.9397
  0
LINE
  8
0
 10
-29.342
 20
-17.9397
 11
-29.5
 21
-17.866
  0
LINE
  8
0
 10
-29.5
 20
-17.866
 11
-29.6428
 21
-17.766
  0
LINE
  8
0
 10
-29.6428
 20
-17.766
 11
-29.766
 21
-17.6428
  0
LINE
  8
0
 10
-29.766
 20
-17.6428
 11
-29.866
 21
-17.5
  0
LINE
  8
0
 10
-29.866
 20
-17.5
 11
-29.9397
 21
-17.342
  0
LINE
  8
0
 10
-29.9397
 20
-17.342
 11
-29.9848
 21
-17.1736
  0
LINE
  8
0
 10
-29.9848
 20
-17.1736
 11
-30
 21
-17
  0
LINE
  8
0
 10
-30
 20
17
 11
-29.9848
 21
17.1736
  0
LINE
  8
0
 10
-29.9848
 20
17.1736
 11
-29.9397
 21
17.342
  0
LINE
  8
0
 10
-29.9397
 20
17.342
 11
-29.866
 21
17.5
  0
LINE
  8
0
 10
-29.866
 20
17.5
 11
-29.766
 21
17.6428
  0
LINE
  8
0
 10
-29.766
 20
17.6428
 11
-29.6428
 21
17.766
  0
LINE
  8
0
 10
-29.6428
 20
17.766
 11
-29.5
 21
17.866
  0
LINE
  8
0
 10
-29.5
 20
17.866
 11
-29.342
 21
17.9397
  0
LINE
  8
0
 10
-29.342
 20
17.9397
 11
-29.1736
 21
17.9848
  0
LINE
  8
0
 10
-29.1736
 20
17.9848
 11
-29
 21
18
  0
LINE
  8
0
 10
-29
 20
18
 11
-28.8264
 21
17.9848
  0
LINE
  8
0
 10
-28.8264
 20
17.9848
 11
-28.658
 21
17.9397
  0
LINE
  8
0
 10
-28.658
 20
17.9397
 11
-28.5
 21
17.866
  0
LINE
  8
0
 10
-28.5
 20
17.866
 11
-28.3572
 21
17.766
  0
LINE
  8
0
 10
-28.3572
 20
17.766
 11
-28.234
 21
17.6428
  0
LINE
  8
0
 10
-28.234
 20
17.6428
 11
-28.134
 21
17.5
  0
LINE
  8
0
 10
-28.134
 20
17.5
 11
-28.0603
 21
17.342
  0
LINE
  8
0
 10
-28.0603
 20
17.342
 11
-28.0152
 21
17.1736
  0
LINE
  8
0
 10
-28.0152
 20
17.1736
 11
-28
 21
17
  0
LINE
  8
0
 10
-28
 20
17
 11
-28.0152
 21
16.8264
  0
LINE
  8
0
 10
-28.0152
 20
16.8264
 11
-28.0603
 21
16.658
  0
LINE
  8
0
 10
-28.0603
 20
16.658
 11
-28.134
 21
16.5
  0
LINE
  8
0
 10
-28.134
 20
16.5
 11
-28.234
 21
16.3572
  0
LINE
  8
0
 10
-28.234
 20
16.3572
 11
-28.3572
 21
16.234
  0
LINE
  8
0
 10
-28.3572
 20
16.234
 11
-28.5
 21
16.134
  0
LINE
  8
0
 10
-28.5
 20
16.134
 11
-28.658
 21
16.0603
  0
LINE
  8
0
 10
-28.658
 20
16.0603
 11
-28.8264
 21
16.0152
  0
LINE
  8
0
 10
-28.8264
 20
16.0152
 11
-29
 21
16
  0
LINE
  8
0
 10
-29
 20
16
 11
-29.1736
 21
16.0152
  0
LINE
  8
0
 10
-29.1736
 20
16.0152
 11
-29.342
 21
16.0603
  0
LINE
  8
0
 10
-29.342
 20
16.0603
 11
-29.5
 21
16.134
  0
LINE
  8
0
 10
-29.5
 20
16.134
 11
-29.6428
 21
16.234
  0
LINE
  8
0
 10
-29.6428
 20
16.234
 11
-29.766
 21
16.3572
  0
LINE
  8
0
 10
-29.766
 20
16.3572
 11
-29.866
 21
16.5
  0
LINE
  8
0
 10
-29.866
 20
16.5
 11
-29.9397
 21
16.658
  0
LINE
  8
0
 10
-29.9397
 20
16.658
 11
-29.9848
 21
16.8264
  0
LINE
  8
0
 10
-29.9848
 20
16.8264
 11
-30
 21
17
  0
LINE
  8
0
 10
-26.35
 20
-42.8683
 11
-26.3257
 21
-42.5904
  0
LINE
  8
0
 10
-26.3257
 20
-42.5904
 11
-26.2535
 21
-42.321
  0
LINE
  8
0
 10
-26.2535
 20
-42.321
 11
-26.1356
 21
-42.0683
  0
LINE
  8
0
 10
-26.1356
 20
-42.0683
 11
-25.9757
 21
-41.8398
  0
LINE
  8
0
 10
-25.9757
 20
-41.8398
 11
-25.7785
 21
-41.6426
  0
LINE
  8
0
 10
-25.7785
 20
-41.6426
 11
-25.55
 21
-41.4826
  0
LINE
  8
0
 10
-25.55
 20
-41.4826
 11
-25.2972
 21
-41.3647
  0
LINE
  8
0
 10
-25.2972
 20
-41.3647
 11
-25.0278
 21
-41.2926
  0
LINE
  8
0
 10
-25.0278
 20
-41.2926
 11
-24.75
 21
-41.2683
  0
LINE
  8
0
 10
-24.75
 20
-41.2683
 11
-24.4722
 21
-41.2926
  0
LINE
  8
0
 10
-24.4722
 20
-41.2926
 11
-24.2028
 21
-41.3647
  0
LINE
  8
0
 10
-24.2028
 20
-41.3647
 11
-23.95
 21
-41.4826
  0
LINE
  8
0
 10
-23.95
 20
-41.4826
 11
-23.7215
 21
-41.6426
  0
LINE
  8
0
 10
-23.7215
 20
-41.6426
 11
-23.5243
 21
-41.8398
  0
LINE
  8
0
 10
-23.5243
 20
-41.8398
 11
-23.3644
 21
-42.0683
  0
LINE
  8
0
 10
-23.3644
 20
-42.0683
 11
-23.2465
 21
-42.321
  0
LINE
  8
0
 10
-23.2465
 20
-42.321
 11
-23.1743
 21
-42.5904
  0
LINE
  8
0
 10
-23.1743
 20
-42.5904
 11
-23.15
 21
-42.8683
  0
LINE
  8
0
 10
-23.15
 20
-42.8683
 11
-23.1743
 21
-43.1461
  0
LINE
  8
0
 10
-23.1743
 20
-43.1461
 11
-23.2465
 21
-43.4155
  0
LINE
  8
0
 10
-23.2465
 20
-43.4155
 11
-23.3644
 21
-43.6683
  0
LINE
  8
0
 10
-23.3644
 20
-43.6683
 11
-23.5243
 21
-43.8967
  0
LINE
  8
0
 10
-23.5243
 20
-43.8967
 11
-23.7215
 21
-44.0939
  0
LINE
  8
0
 10
-23.7215
 20
-44.0939
 11
-23.95
 21
-44.2539
  0
LINE
  8
0
 10
-23.95
 20
-44.2539
 11
-24.2028
 21
-44.3718
  0
LINE
  8
0
 10
-24.2028
 20
-44.3718
 11
-24.4722
 21
-44.4439
  0
LINE
  8
0
 10
-24.4722
 20
-44.4439
 11
-24.75
 21
-44.4683
  0
LINE
  8
0
 10
-24.75
 20
-44.4683
 11
-25.0278
 21
-44.4439
  0
LINE
  8
0
 10
-25.0278
 20
-44.4439
 11
-25.2972
 21
-44.3718
  0
LINE
  8
0
 10
-25.2972
 20
-44.3718
 11
-25.55
 21
-44.2539
  0
LINE
  8
0
 10
-25.55
 20
-44.2539
 11
-25.7785
 21
-44.0939
  0
LINE
  8
0
 10
-25.7785
 20
-44.0939
 11
-25.9757
 21
-43.8967
  0
LINE
  8
0
 10
-25.9757
 20
-43.8967
 11
-26.1356
 21
-43.6683
  0
LINE
  8
0
 10
-26.1356
 20
-43.6683
 11
-26.2535
 21
-43.4155
  0
LINE
  8
0
 10
-26.2535
 20
-43.4155
 11
-26.3257
 21
-43.1461
  0
LINE
  8
0
 10
-26.3257
 20
-43.1461
 11
-26.35
 21
-42.8683
  0
LINE
  8
0
 10
-26.35
 20
42.8683
 11
-26.3257
 21
43.1461
  0
LINE
  8
0
 10
-26.3257
 20
43.1461
 11
-26.2535
 21
43.4155
  0
LINE
  8
0
 10
-26.2535
 20
43.4155
 11
-26.1356
 21
43.6683
  0
LINE
  8
0
 10
-26.1356
 20
43.6683
 11
-25.9757
 21
43.8967
  0
LINE
  8
0
 10
-25.9757
 20
43.8967
 11
-25.7785
 21
44.0939
  0
LINE
  8
0
 10
-25.7785
 20
44.0939
 11
-25.55
 21
44.2539
  0
LINE
  8
0
 10
-25.55
 20
44.2539
 11
-25.2972
 21
44.3718
  0
LINE
  8
0
 10
-25.2972
 20
44.3718
 11
-25.0278
 21
44.4439
  0
LINE
  8
0
 10
-25.0278
 20
44.4439
 11
-24.75
 21
44.4683
  0
LINE
  8
0
 10
-24.75
 20
44.4683
 11
-24.4722
 21
44.4439
  0
LINE
  8
0
 10
-24.4722
 20
44.4439
 11
-24.2028
 21
44.3718
  0
LINE
  8
0
 10
-24.2028
 20
44.3718
 11
-23.95
 21
44.2539
  0
LINE
  8
0
 10
-23.95
 20
44.2539
 11
-23.7215
 21
44.0939
  0
LINE
  8
0
 10
-23.7215
 20
44.0939
 11
-23.5243
 21
43.8967
  0
LINE
  8
0
 10
-23.5243
 20
43.8967
 11
-23.3644
 21
43.6683
  0
LINE
  8
0
 10
-23.3644
 20
43.6683
 11
-23.2465
 21
43.4155
  0
LINE
  8
0
 10
-23.2465
 20
43.4155
 11
-23.1743
 21
43.1461
  0
LINE
  8
0
 10
-23.1743
 20
43.1461
 11
-23.15
 21
42.8683
  0
LINE
  8
0
 10
-23.15
 20
42.8683
 11
-23.1743
 21
42.5904
  0
LINE
  8
0
 10
-23.1743
 20
42.5904
 11
-23.2465
 21
42.321
  0
LINE
  8
0
 10
-23.2465
 20
42.321
 11
-23.3644
 21
42.0683
  0
LINE
  8
0
 10
-23.3644
 20
42.0683
 11
-23.5243
 21
41.8398
  0
LINE
  8
0
 10
-23.5243
 20
41.8398
 11
-23.7215
 21
41.6426
  0
LINE
  8
0
 10
-23.7215
 20
41.6426
 11
-23.95
 21
41.4826
  0
LINE
  8
0
 10
-23.95
 20
41.4826
 11
-24.2028
 21
41.3647
  0
LINE
  8
0
 10
-24.2028
 20
41.3647
 11
-24.4722
 21
41.2926
  0
LINE
  8
0
 10
-24.4722
 20
41.2926
 11
-24.75
 21
41.2683
  0
LINE
  8
0
 10
-24.75
 20
41.2683
 11
-25.0278
 21
41.2926
  0
LINE
  8
0
 10
-25.0278
 20
41.2926
 11
-25.2972
 21
41.3647
  0
LINE
  8
0
 10
-25.2972
 20
41.3647
 11
-25.55
 21
41.4826
  0
LINE
  8
0
 10
-25.55
 20
41.4826
 11
-25.7785
 21
41.6426
  0
LINE
  8
0
 10
-25.7785
 20
41.6426
 11
-25.9757
 21
41.8398
  0
LINE
  8
0
 10
-25.9757
 20
41.8398
 11
-26.1356
 21
42.0683
  0
LINE
  8
0
 10
-26.1356
 20
42.0683
 11
-26.2535
 21
42.321
  0
LINE
  8
0
 10
-26.2535
 20
42.321
 11
-26.3257
 21
42.5904
  0
LINE
  8
0
 10
-26.3257
 20
42.5904
 11
-26.35
 21
42.8683
  0
LINE
  8
0
 10
-22
 20
-38.25
 11
-21.9848
 21
-38.0764
  0
LINE
  8
0
 10
-21.9848
 20
-38.0764
 11
-21.9397
 21
-37.908
  0
LINE
  8
0
 10
-21.9397
 20
-37.908
 11
-21.866
 21
-37.75
  0
LINE
  8
0
 10
-21.866
 20
-37.75
 11
-21.766
 21
-37.6072
  0
LINE
  8
0
 10
-21.766
 20
-37.6072
 11
-21.6428
 21
-37.484
  0
LINE
  8
0
 10
-21.6428
 20
-37.484
 11
-21.5
 21
-37.384
  0
LINE
  8
0
 10
-21.5
 20
-37.384
 11
-21.342
 21
-37.3103
  0
LINE
  8
0
 10
-21.342
 20
-37.3103
 11
-21.1736
 21
-37.2652
  0
LINE
  8
0
 10
-21.1736
 20
-37.2652
 11
-21
 21
-37.25
  0
LINE
  8
0
 10
-21
 20
-37.25
 11
-20.8264
 21
-37.2652
  0
LINE
  8
0
 10
-20.8264
 20
-37.2652
 11
-20.658
 21
-37.3103
  0
LINE
  8
0
 10
-20.658
 20
-37.3103
 11
-20.5
 21
-37.384
  0
LINE
  8
0
 10
-20.5
 20
-37.384
 11
-20.3572
 21
-37.484
  0
LINE
  8
0
 10
-20.3572
 20
-37.484
 11
-20.234
 21
-37.6072
  0
LINE
  8
0
 10
-20.234
 20
-37.6072
 11
-20.134
 21
-37.75
  0
LINE
  8
0
 10
-20.134
 20
-37.75
 11
-20.0603
 21
-37.908
  0
LINE
  8
0
 10
-20.0603
 20
-37.908
 11
-20.0152
 21
-38.0764
  0
LINE
  8
0
 10
-20.0152
 20
-38.0764
 11
-20
 21
-38.25
  0
LINE
  8
0
 10
-20
 20
-38.25
 11
-20.0152
 21
-38.4236
  0
LINE
  8
0
 10
-20.0152
 20
-38.4236
 11
-20.0603
 21
-38.592
  0
LINE
  8
0
 10
-20.0603
 20
-38.592
 11
-20.134
 21
-38.75
  0
LINE
  8
0
 10
-20.134
 20
-38.75
 11
-20.234
 21
-38.8928
  0
LINE
  8
0
 10
-20.234
 20
-38.8928
 11
-20.3572
 21
-39.016
  0
LINE
  8
0
 10
-20.3572
 20
-39.016
 11
-20.5
 21
-39.116
  0
LINE
  8
0
 10
-20.5
 20
-39.116
 11
-20.658
 21
-39.1897
  0
LINE
  8
0
 10
-20.658
 20
-39.1897
 11
-20.8264
 21
-39.2348
  0
LINE
  8
0
 10
-20.8264
 20
-39.2348
 11
-21
 21
-39.25
  0
LINE
  8
0
 10
-21
 20
-39.25
 11
-21.1736
 21
-39.2348
  0
LINE
  8
0
 10
-21.1736
 20
-39.2348
 11
-21.342
 21
-39.1897
  0
LINE
  8
0
 10
-21.342
 20
-39.1897
 11
-21.5
 21
-39.116
  0
LINE
  8
0
 10
-21.5
 20
-39.116
 11
-21.6428
 21
-39.016
  0
LINE
  8
0
 10
-21.6428
 20
-39.016
 11
-21.766
 21
-38.8928
  0
LINE
  8
0
 10
-21.766
 20
-38.8928
 11
-21.866
 21
-38.75
  0
LINE
  8
0
 10
-21.866
 20
-38.75
 11
-21.9397
 21
-38.592
  0
LINE
  8
0
 10
-21.9397
 20
-38.592
 11
-21.9848
 21
-38.4236
  0
LINE
  8
0
 10
-21.9848
 20
-38.4236
 11
-22
 21
-38.25
  0
LINE
  8
0
 10
-22
 20
-18.75
 11
-21.9848
 21
-18.5764
  0
LINE
  8
0
 10
-21.9848
 20
-18.5764
 11
-21.9397
 21
-18.408
  0
LINE
  8
0
 10
-21.9397
 20
-18.408
 11
-21.866
 21
-18.25
  0
LINE
  8
0
 10
-21.866
 20
-18.25
 11
-21.766
 21
-18.1072
  0
LINE
  8
0
 10
-21.766
 20
-18.1072
 11
-21.6428
 21
-17.984
  0
LINE
  8
0
 10
-21.6428
 20
-17.984
 11
-21.5
 21
-17.884
  0
LINE
  8
0
 10
-21.5
 20
-17.884
 11
-21.342
 21
-17.8103
  0
LINE
  8
0
 10
-21.342
 20
-17.8103
 11
-21.1736
 21
-17.7652
  0
LINE
  8
0
 10
-21.1736
 20
-17.7652
 11
-21
 21
-17.75
  0
LINE
  8
0
 10
-21
 20
-17.75
 11
-20.8264
 21
-17.7652
  0
LINE
  8
0
 10
-20.8264
 20
-17.7652
 11
-20.658
 21
-17.8103
  0
LINE
  8
0
 10
-20.658
 20
-17.8103
 11
-20.5
 21
-17.884
  0
LINE
  8
0
 10
-20.5
 20
-17.884
 11
-20.3572
 21
-17.984
  0
LINE
  8
0
 10
-20.3572
 20
-17.984
 11
-20.234
 21
-18.1072
  0
LINE
  8
0
 10
-20.234
 20
-18.1072
 11
-20.134
 21
-18.25
  0
LINE
  8
0
 10
-20.134
 20
-18.25
 11
-20.0603
 21
-18.408
  0
LINE
  8
0
 10
-20.0603
 20
-18.408
 11
-20.0152
 21
-18.5764
  0
LINE
  8
0
 10
-20.0152
 20
-18.5764
 11
-20
 21
-18.75
  0
LINE
  8
0
 10
-20
 20
-18.75
 11
-20.0152
 21
-18.9236
  0
LINE
  8
0
 10
-20.0152
 20
-18.9236
 11
-20.0603
 21
-19.092
  0
LINE
  8
0
 10
-20.0603
 20
-19.092
 11
-20.134
 21
-19.25
  0
LINE
  8
0
 10
-20.134
 20
-19.25
 11
-20.234
 21
-19.3928
  0
LINE
  8
0
 10
-20.234
 20
-19.3928
 11
-20.3572
 21
-19.516
  0
LINE
  8
0
 10
-20.3572
 20
-19.516
 11
-20.5
 21
-19.616
  0
LINE
  8
0
 10
-20.5
 20
-19.616
 11
-20.658
 21
-19.6897
  0
LINE
  8
0
 10
-20.658
 20
-19.6897
 11
-20.8264
 21
-19.7348
  0
LINE
  8
0
 10
-20.8264
 20
-19.7348
 11
-21
 21
-19.75
  0
LINE
  8
0
 10
-21
 20
-19.75
 11
-21.1736
 21
-19.7348
  0
LINE
  8
0
 10
-21.1736
 20
-19.7348
 11
-21.342
 21
-19.6897
  0
LINE
  8
0
 10
-21.342
 20
-19.6897
 11
-21.5
 21
-19.616
  0
LINE
  8
0
 10
-21.5
 20
-19.616
 11
-21.6428
 21
-19.516
  0
LINE
  8
0
 10
-21.6428
 20
-19.516
 11
-21.766
 21
-19.3928
  0
LINE
  8
0
 10
-21.766
 20
-19.3928
 11
-21.866
 21
-19.25
  0
LINE
  8
0
 10
-21.866
 20
-19.25
 11
-21.9397
 21
-19.092
  0
LINE
  8
0
 10
-21.9397
 20
-19.092
 11
-21.9848
 21
-18.9236
  0
LINE
  8
0
 10
-21.9848
 20
-18.9236
 11
-22
 21
-18.75
  0
LINE
  8
0
 10
-22
 20
18.75
 11
-21.9848
 21
18.9236
  0
LINE
  8
0
 10
-21.9848
 20
18.9236
 11
-21.9397
 21
19.092
  0
LINE
  8
0
 10
-21.9397
 20
19.092
 11
-21.866
 21
19.25
  0
LINE
  8
0
 10
-21.866
 20
19.25
 11
-21.766
 21
19.3928
  0
LINE
  8
0
 10
-21.766
 20
19.3928
 11
-21.6428
 21
19.516
  0
LINE
  8
0
 10
-21.6428
 20
19.516
 11
-21.5
 21
19.616
  0
LINE
  8
0
 10
-21.5
 20
19.616
 11
-21.342
 21
19.6897
  0
LINE
  8
0
 10
-21.342
 20
19.6897
 11
-21.1736
 21
19.7348
  0
LINE
  8
0
 10
-21.1736
 20
19.7348
 11
-21
 21
19.75
  0
LINE
  8
0
 10
-21
 20
19.75
 11
-20.8264
 21
19.7348
  0
LINE
  8
0
 10
-20.8264
 20
19.7348
 11
-20.658
 21
19.6897
  0
LINE
  8
0
 10
-20.658
 20
19.6897
 11
-20.5
 21
19.616
  0
LINE
  8
0
 10
-20.5
 20
19.616
 11
-20.3572
 21
19.516
  0
LINE
  8
0
 10
-20.3572
 20
19.516
 11
-20.234
 21
19.3928
  0
LINE
  8
0
 10
-20.234
 20
19.3928
 11
-20.134
 21
19.25
  0
LINE
  8
0
 10
-20.134
 20
19.25
 11
-20.0603
 21
19.092
  0
LINE
  8
0
 10
-20.0603
 20
19.092
 11
-20.0152
 21
18.9236
  0
LINE
  8
0
 10
-20.0152
 20
18.9236
 11
-20
 21
18.75
  0
LINE
  8
0
 10
-20
 20
18.75
 11
-20.0152
 21
18.5764
  0
LINE
  8
0
 10
-20.0152
 20
18.5764
 11
-20.0603
 21
18.408
  0
LINE
  8
0
 10
-20.0603
 20
18.408
 11
-20.134
 21
18.25
  0
LINE
  8
0
 10
-20.134
 20
18.25
 11
-20.234
 21
18.1072
  0
LINE
  8
0
 10
-20.234
 20
18.1072
 11
-20.3572
 21
17.984
  0
LINE
  8
0
 10
-20.3572
 20
17.984
 11
-20.5
 21
17.884
  0
LINE
  8
0
 10
-20.5
 20
17.884
 11
-20.658
 21
17.8103
  0
LINE
  8
0
 10
-20.658
 20
17.8103
 11
-20.8264
 21
17.7652
  0
LINE
  8
0
 10
-20.8264
 20
17.7652
 11
-21
 21
17.75
  0
LINE
  8
0
 10
-21
 20
17.75
 11
-21.1736
 21
17.7652
  0
LINE
  8
0
 10
-21.1736
 20
17.7652
 11
-21.342
 21
17.8103
  0
LINE
  8
0
 10
-21.342
 20
17.8103
 11
-21.5
 21
17.884
  0
LINE
  8
0
 10
-21.5
 20
17.884
 11
-21.6428
 21
17.984
  0
LINE
  8
0
 10
-21.6428
 20
17.984
 11
-21.766
 21
18.1072
  0
LINE
  8
0
 10
-21.766
 20
18.1072
 11
-21.866
 21
18.25
  0
LINE
  8
0
 10
-21.866
 20
18.25
 11
-21.9397
 21
18.408
  0
LINE
  8
0
 10
-21.9397
 20
18.408
 11
-21.9848
 21
18.5764
  0
LINE
  8
0
 10
-21.9848
 20
18.5764
 11
-22
 21
18.75
  0
LINE
  8
0
 10
-22
 20
38.25
 11
-21.9848
 21
38.4236
  0
LINE
  8
0
 10
-21.9848
 20
38.4236
 11
-21.9397
 21
38.592
  0
LINE
  8
0
 10
-21.9397
 20
38.592
 11
-21.866
 21
38.75
  0
LINE
  8
0
 10
-21.866
 20
38.75
 11
-21.766
 21
38.8928
  0
LINE
  8
0
 10
-21.766
 20
38.8928
 11
-21.6428
 21
39.016
  0
LINE
  8
0
 10
-21.6428
 20
39.016
 11
-21.5
 21
39.116
  0
LINE
  8
0
 10
-21.5
 20
39.116
 11
-21.342
 21
39.1897
  0
LINE
  8
0
 10
-21.342
 20
39.1897
 11
-21.1736
 21
39.2348
  0
LINE
  8
0
 10
-21.1736
 20
39.2348
 11
-21
 21
39.25
  0
LINE
  8
0
 10
-21
 20
39.25
 11
-20.8264
 21
39.2348
  0
LINE
  8
0
 10
-20.8264
 20
39.2348
 11
-20.658
 21
39.1897
  0
LINE
  8
0
 10
-20.658
 20
39.1897
 11
-20.5
 21
39.116
  0
LINE
  8
0
 10
-20.5
 20
39.116
 11
-20.3572
 21
39.016
  0
LINE
  8
0
 10
-20.3572
 20
39.016
 11
-20.234
 21
38.8928
  0
LINE
  8
0
 10
-20.234
 20
38.8928
 11
-20.134
 21
38.75
  0
LINE
  8
0
 10
-20.134
 20
38.75
 11
-20.0603
 21
38.592
  0
LINE
  8
0
 10
-20.0603
 20
38.592
 11
-20.0152
 21
38.4236
  0
LINE
  8
0
 10
-20.0152
 20
38.4236
 11
-20
 21
38.25
  0
LINE
  8
0
 10
-20
 20
38.25
 11
-20.0152
 21
38.0764
  0
LINE
  8
0
 10
-20.0152
 20
38.0764
 11
-20.0603
 21
37.908
  0
LINE
  8
0
 10
-20.0603
 20
37.908
 11
-20.134
 21
37.75
  0
LINE
  8
0
 10
-20.134
 20
37.75
 11
-20.234
 21
37.6072
  0
LINE
  8
0
 10
-20.234
 20
37.6072
 11
-20.3572
 21
37.484
  0
LINE
  8
0
 10
-20.3572
 20
37.484
 11
-20.5
 21
37.384
  0
LINE
  8
0
 10
-20.5
 20
37.384
 11
-20.658
 21
37.3103
  0
LINE
  8
0
 10
-20.658
 20
37.3103
 11
-20.8264
 21
37.2652
  0
LINE
  8
0
 10
-20.8264
 20
37.2652
 11
-21
 21
37.25
  0
LINE
  8
0
 10
-21
 20
37.25
 11
-21.1736
 21
37.2652
  0
LINE
  8
0
 10
-21.1736
 20
37.2652
 11
-21.342
 21
37.3103
  0
LINE
  8
0
 10
-21.342
 20
37.3103
 11
-21.5
 21
37.384
  0
LINE
  8
0
 10
-21.5
 20
37.384
 11
-21.6428
 21
37.484
  0
LINE
  8
0
 10
-21.6428
 20
37.484
 11
-21.766
 21
37.6072
  0
LINE
  8
0
 10
-21.766
 20
37.6072
 11
-21.866
 21
37.75
  0
LINE
  8
0
 10
-21.866
 20
37.75
 11
-21.9397
 21
37.908
  0
LINE
  8
0
 10
-21.9397
 20
37.908
 11
-21.9848
 21
38.0764
  0
LINE
  8
0
 10
-21.9848
 20
38.0764
 11
-22
 21
38.25
  0
LINE
  8
0
 10
-20
 20
-12.5
 11
-19.9848
 21
-12.3264
  0
LINE
  8
0
 10
-19.9848
 20
-12.3264
 11
-19.9397
 21
-12.158
  0
LINE
  8
0
 10
-19.9397
 20
-12.158
 11
-19.866
 21
-12
  0
LINE
  8
0
 10
-19.866
 20
-12
 11
-19.766
 21
-11.8572
  0
LINE
  8
0
 10
-19.766
 20
-11.8572
 11
-19.6428
 21
-11.734
  0
LINE
  8
0
 10
-19.6428
 20
-11.734
 11
-19.5
 21
-11.634
  0
LINE
  8
0
 10
-19.5
 20
-11.634
 11
-19.342
 21
-11.5603
  0
LINE
  8
0
 10
-19.342
 20
-11.5603
 11
-19.1736
 21
-11.5152
  0
LINE
  8
0
 10
-19.1736
 20
-11.5152
 11
-19
 21
-11.5
  0
LINE
  8
0
 10
-19
 20
-11.5
 11
-18.8264
 21
-11.5152
  0
LINE
  8
0
 10
-18.8264
 20
-11.5152
 11
-18.658
 21
-11.5603
  0
LINE
  8
0
 10
-18.658
 20
-11.5603
 11
-18.5
 21
-11.634
  0
LINE
  8
0
 10
-18.5
 20
-11.634
 11
-18.3572
 21
-11.734
  0
LINE
  8
0
 10
-18.3572
 20
-11.734
 11
-18.234
 21
-11.8572
  0
LINE
  8
0
 10
-18.234
 20
-11.8572
 11
-18.134
 21
-12
  0
LINE
  8
0
 10
-18.134
 20
-12
 11
-18.0603
 21
-12.158
  0
LINE
  8
0
 10
-18.0603
 20
-12.158
 11
-18.0152
 21
-12.3264
  0
LINE
  8
0
 10
-18.0152
 20
-12.3264
 11
-18
 21
-12.5
  0
LINE
  8
0
 10
-18
 20
-12.5
 11
-18.0152
 21
-12.6736
  0
LINE
  8
0
 10
-18.0152
 20
-12.6736
 11
-18.0603
 21
-12.842
  0
LINE
  8
0
 10
-18.0603
 20
-12.842
 11
-18.134
 21
-13
  0
LINE
  8
0
 10
-18.134
 20
-13
 11
-18.234
 21
-13.1428
  0
LINE
  8
0
 10
-18.234
 20
-13.1428
 11
-18.3572
 21
-13.266
  0
LINE
  8
0
 10
-18.3572
 20
-13.266
 11
-18.5
 21
-13.366
  0
LINE
  8
0
 10
-18.5
 20
-13.366
 11
-18.658
 21
-13.4397
  0
LINE
  8
0
 10
-18.658
 20
-13.4397
 11
-18.8264
 21
-13.4848
  0
LINE
  8
0
 10
-18.8264
 20
-13.4848
 11
-19
 21
-13.5
  0
LINE
  8
0
 10
-19
 20
-13.5
 11
-19.1736
 21
-13.4848
  0
LINE
  8
0
 10
-19.1736
 20
-13.4848
 11
-19.342
 21
-13.4397
  0
LINE
  8
0
 10
-19.342
 20
-13.4397
 11
-19.5
 21
-13.366
  0
LINE
  8
0
 10
-19.5
 20
-13.366
 11
-19.6428
 21
-13.266
  0
LINE
  8
0
 10
-19.6428
 20
-13.266
 11
-19.766
 21
-13.1428
  0
LINE
  8
0
 10
-19.766
 20
-13.1428
 11
-19.866
 21
-13
  0
LINE
  8
0
 10
-19.866
 20
-13
 11
-19.9397
 21
-12.842
  0
LINE
  8
0
 10
-19.9397
 20
-12.842
 11
-19.9848
 21
-12.6736
  0
LINE
  8
0
 10
-19.9848
 20
-12.6736
 11
-20
 21
-12.5
  0
LINE
  8
0
 10
-20
 20
12.5
 11
-19.9848
 21
12.6736
  0
LINE
  8
0
 10
-19.9848
 20
12.6736
 11
-19.9397
 21
12.842
  0
LINE
  8
0
 10
-19.9397
 20
12.842
 11
-19.866
 21
13
  0
LINE
  8
0
 10
-19.866
 20
13
 11
-19.766
 21
13.1428
  0
LINE
  8
0
 10
-19.766
 20
13.1428
 11
-19.6428
 21
13.266
  0
LINE
  8
0
 10
-19.6428
 20
13.266
 11
-19.5
 21
13.366
  0
LINE
  8
0
 10
-19.5
 20
13.366
 11
-19.342
 21
13.4397
  0
LINE
  8
0
 10
-19.342
 20
13.4397
 11
-19.1736
 21
13.4848
  0
LINE
  8
0
 10
-19.1736
 20
13.4848
 11
-19
 21
13.5
  0
LINE
  8
0
 10
-19
 20
13.5
 11
-18.8264
 21
13.4848
  0
LINE
  8
0
 10
-18.8264
 20
13.4848
 11
-18.658
 21
13.4397
  0
LINE
  8
0
 10
-18.658
 20
13.4397
 11
-18.5
 21
13.366
  0
LINE
  8
0
 10
-18.5
 20
13.366
 11
-18.3572
 21
13.266
  0
LINE
  8
0
 10
-18.3572
 20
13.266
 11
-18.234
 21
13.1428
  0
LINE
  8
0
 10
-18.234
 20
13.1428
 11
-18.134
 21
13
  0
LINE
  8
0
 10
-18.134
 20
13
 11
-18.0603
 21
12.842
  0
LINE
  8
0
 10
-18.0603
 20
12.842
 11
-18.0152
 21
12.6736
  0
LINE
  8
0
 10
-18.0152
 20
12.6736
 11
-18
 21
12.5
  0
LINE
  8
0
 10
-18
 20
12.5
 11
-18.0152
 21
12.3264
  0
LINE
  8
0
 10
-18.0152
 20
12.3264
 11
-18.0603
 21
12.158
  0
LINE
  8
0
 10
-18.0603
 20
12.158
 11
-18.134
 21
12
  0
LINE
  8
0
 10
-18.134
 20
12
 11
-18.234
 21
11.8572
  0
LINE
  8
0
 10
-18.234
 20
11.8572
 11
-18.3572
 21
11.734
  0
LINE
  8
0
 10
-18.3572
 20
11.734
 11
-18.5
 21
11.634
  0
LINE
  8
0
 10
-18.5
 20
11.634
 11
-18.658
 21
11.5603
  0
LINE
  8
0
 10
-18.658
 20
11.5603
 11
-18.8264
 21
11.5152
  0
LINE
  8
0
 10
-18.8264
 20
11.5152
 11
-19
 21
11.5
  0
LINE
  8
0
 10
-19
 20
11.5
 11
-19.1736
 21
11.5152
  0
LINE
  8
0
 10
-19.1736
 20
11.5152
 11
-19.342
 21
11.5603
  0
LINE
  8
0
 10
-19.342
 20
11.5603
 11
-19.5
 21
11.634
  0
LINE
  8
0
 10
-19.5
 20
11.634
 11
-19.6428
 21
11.734
  0
LINE
  8
0
 10
-19.6428
 20
11.734
 11
-19.766
 21
11.8572
  0
LINE
  8
0
 10
-19.766
 20
11.8572
 11
-19.866
 21
12
  0
LINE
  8
0
 10
-19.866
 20
12
 11
-19.9397
 21
12.158
  0
LINE
  8
0
 10
-19.9397
 20
12.158
 11
-19.9848
 21
12.3264
  0
LINE
  8
0
 10
-19.9848
 20
12.3264
 11
-20
 21
12.5
  0
LINE
  8
0
 10
-17
 20
-41.185
 11
-17
 21
-13.9857
  0
LINE
  8
0
 10
-17
 20
-13.9857
 11
-16.8349
 21
-13.75
  0
LINE
  8
0
 10
-16.8349
 20
-13.75
 11
-16.6508
 21
-13.3551
  0
LINE
  8
0
 10
-16.6508
 20
-13.3551
 11
-16.538
 21
-12.9341
  0
LINE
  8
0
 10
-16.538
 20
-12.9341
 11
-16.5
 21
-12.5
  0
LINE
  8
0
 10
-16.5
 20
-12.5
 11
-16.538
 21
-12.0659
  0
LINE
  8
0
 10
-16.538
 20
-12.0659
 11
-16.6508
 21
-11.6449
  0
LINE
  8
0
 10
-16.6508
 20
-11.6449
 11
-16.8349
 21
-11.25
  0
LINE
  8
0
 10
-16.8349
 20
-11.25
 11
-17
 21
-11.0143
  0
LINE
  8
0
 10
-17
 20
-11.0143
 11
-17
 21
11.0143
  0
LINE
  8
0
 10
-17
 20
11.0143
 11
-16.8349
 21
11.25
  0
LINE
  8
0
 10
-16.8349
 20
11.25
 11
-16.6508
 21
11.6449
  0
LINE
  8
0
 10
-16.6508
 20
11.6449
 11
-16.538
 21
12.0659
  0
LINE
  8
0
 10
-16.538
 20
12.0659
 11
-16.5
 21
12.5
  0
LINE
  8
0
 10
-16.5
 20
12.5
 11
-16.538
 21
12.9341
  0
LINE
  8
0
 10
-16.538
 20
12.9341
 11
-16.6508
 21
13.3551
  0
LINE
  8
0
 10
-16.6508
 20
13.3551
 11
-16.8349
 21
13.75
  0
LINE
  8
0
 10
-16.8349
 20
13.75
 11
-17
 21
13.9857
  0
LINE
  8
0
 10
-17
 20
13.9857
 11
-17
 21
41.185
  0
LINE
  8
0
 10
-17
 20
41.185
 11
0
 21
51
  0
LINE
  8
0
 10
0
 20
51
 11
44.1673
 21
25.5
  0
LINE
  8
0
 10
44.1673
 20
25.5
 11
44.1673
 21
17
  0
LINE
  8
0
 10
44.1673
 20
17
 11
36.7721
 21
17
  0
LINE
  8
0
 10
36.7721
 20
17
 11
36.9151
 21
17.143
  0
LINE
  8
0
 10
36.9151
 20
17.143
 11
37.1651
 21
17.5
  0
LINE
  8
0
 10
37.1651
 20
17.5
 11
37.3492
 21
17.8949
  0
LINE
  8
0
 10
37.3492
 20
17.8949
 11
37.462
 21
18.3159
  0
LINE
  8
0
 10
37.462
 20
18.3159
 11
37.5
 21
18.75
  0
LINE
  8
0
 10
37.5
 20
18.75
 11
37.462
 21
19.1841
  0
LINE
  8
0
 10
37.462
 20
19.1841
 11
37.3492
 21
19.6051
  0
LINE
  8
0
 10
37.3492
 20
19.6051
 11
37.1651
 21
20
  0
LINE
  8
0
 10
37.1651
 20
20
 11
36.9151
 21
20.357
  0
LINE
  8
0
 10
36.9151
 20
20.357
 11
36.607
 21
20.6651
  0
LINE
  8
0
 10
36.607
 20
20.6651
 11
36.25
 21
20.9151
  0
LINE
  8
0
 10
36.25
 20
20.9151
 11
35.8551
 21
21.0992
  0
LINE
  8
0
 10
35.8551
 20
21.0992
 11
35.4341
 21
21.212
  0
LINE
  8
0
 10
35.4341
 20
21.212
 11
35
 21
21.25
  0
LINE
  8
0
 10
35
 20
21.25
 11
34.5659
 21
21.212
  0
LINE
  8
0
 10
34.5659
 20
21.212
 11
34.1449
 21
21.0992
  0
LINE
  8
0
 10
34.1449
 20
21.0992
 11
33.75
 21
20.9151
  0
LINE
  8
0
 10
33.75
 20
20.9151
 11
33.393
 21
20.6651
  0
LINE
  8
0
 10
33.393
 20
20.6651
 11
33.0849
 21
20.357
  0
LINE
  8
0
 10
33.0849
 20
20.357
 11
32.8349
 21
20
  0
LINE
  8
0
 10
32.8349
 20
20
 11
32.6508
 21
19.6051
  0
LINE
  8
0
 10
32.6508
 20
19.6051
 11
32.538
 21
19.1841
  0
LINE
  8
0
 10
32.538
 20
19.1841
 11
32.5
 21
18.75
  0
LINE
  8
0
 10
32.5
 20
18.75
 11
32.538
 21
18.3159
  0
LINE
  8
0
 10
32.538
 20
18.3159
 11
32.6508
 21
17.8949
  0
LINE
  8
0
 10
32.6508
 20
17.8949
 11
32.8349
 21
17.5
  0
LINE
  8
0
 10
32.8349
 20
17.5
 11
33.0849
 21
17.143
  0
LINE
  8
0
 10
33.0849
 20
17.143
 11
33.2279
 21
17
  0
LINE
  8
0
 10
33.2279
 20
17
 11
32
 21
17
  0
LINE
  8
0
 10
32
 20
17
 11
32
 21
14.7816
  0
LINE
  8
0
 10
32
 20
14.7816
 11
31.75
 21
14.6651
  0
LINE
  8
0
 10
31.75
 20
14.6651
 11
31.393
 21
14.4151
  0
LINE
  8
0
 10
31.393
 20
14.4151
 11
31.0849
 21
14.107
  0
LINE
  8
0
 10
31.0849
 20
14.107
 11
30.8349
 21
13.75
  0
LINE
  8
0
 10
30.8349
 20
13.75
 11
30.6508
 21
13.3551
  0
LINE
  8
0
 10
30.6508
 20
13.3551
 11
30.538
 21
12.9341
  0
LINE
  8
0
 10
30.538
 20
12.9341
 11
30.5
 21
12.5
  0
LINE
  8
0
 10
30.5
 20
12.5
 11
30.538
 21
12.0659
  0
LINE
  8
0
 10
30.538
 20
12.0659
 11
30.6508
 21
11.6449
  0
LINE
  8
0
 10
30.6508
 20
11.6449
 11
30.8349
 21
11.25
  0
LINE
  8
0
 10
30.8349
 20
11.25
 11
31.0849
 21
10.893
  0
LINE
  8
0
 10
31.0849
 20
10.893
 11
31.393
 21
10.5849
  0
LINE
  8
0
 10
31.393
 20
10.5849
 11
31.75
 21
10.3349
  0
LINE
  8
0
 10
31.75
 20
10.3349
 11
32
 21
10.2184
  0
LINE
  8
0
 10
32
 20
10.2184
 11
32
 21
-10.2184
  0
LINE
  8
0
 10
32
 20
-10.2184
 11
31.75
 21
-10.3349
  0
LINE
  8
0
 10
31.75
 20
-10.3349
 11
31.393
 21
-10.5849
  0
LINE
  8
0
 10
31.393
 20
-10.5849
 11
31.0849
 21
-10.893
  0
LINE
  8
0
 10
31.0849
 20
-10.893
 11
30.8349
 21
-11.25
  0
LINE
  8
0
 10
30.8349
 20
-11.25
 11
30.6508
 21
-11.6449
  0
LINE
  8
0
 10
30.6508
 20
-11.6449
 11
30.538
 21
-12.0659
  0
LINE
  8
0
 10
30.538
 20
-12.0659
 11
30.5
 21
-12.5
  0
LINE
  8
0
 10
30.5
 20
-12.5
 11
30.538
 21
-12.9341
  0
LINE
  8
0
 10
30.538
 20
-12.9341
 11
30.6508
 21
-13.3551
  0
LINE
  8
0
 10
30.6508
 20
-13.3551
 11
30.8349
 21
-13.75
  0
LINE
  8
0
 10
30.8349
 20
-13.75
 11
31.0849
 21
-14.107
  0
LINE
  8
0
 10
31.0849
 20
-14.107
 11
31.393
 21
-14.4151
  0
LINE
  8
0
 10
31.393
 20
-14.4151
 11
31.75
 21
-14.6651
  0
LINE
  8
0
 10
31.75
 20
-14.6651
 11
32
 21
-14.7816
  0
LINE
  8
0
 10
32
 20
-14.7816
 11
32
 21
-17
  0
LINE
  8
0
 10
32
 20
-17
 11
33.2279
 21
-17
  0
LINE
  8
0
 10
33.2279
 20
-17
 11
33.0849
 21
-17.143
  0
LINE
  8
0
 10
33.0849
 20
-17.143
 11
32.8349
 21
-17.5
  0
LINE
  8
0
 10
32.8349
 20
-17.5
 11
32.6508
 21
-17.8949
  0
LINE
  8
0
 10
32.6508
 20
-17.8949
 11
32.538
 21
-18.3159
  0
LINE
  8
0
 10
32.538
 20
-18.3159
 11
32.5
 21
-18.75
  0
LINE
  8
0
 10
32.5
 20
-18.75
 11
32.538
 21
-19.1841
  0
LINE
  8
0
 10
32.538
 20
-19.1841
 11
32.6508
 21
-19.6051
  0
LINE
  8
0
 10
32.6508
 20
-19.6051
 11
32.8349
 21
-20
  0
LINE
  8
0
 10
32.8349
 20
-20
 11
33.0849
 21
-20.357
  0
LINE
  8
0
 10
33.0849
 20
-20.357
 11
33.393
 21
-20.6651
  0
LINE
  8
0
 10
33.393
 20
-20.6651
 11
33.75
 21
-20.9151
  0
LINE
  8
0
 10
33.75
 20
-20.9151
 11
34.1449
 21
-21.0992
  0
LINE
  8
0
 10
34.1449
 20
-21.0992
 11
34.5659
 21
-21.212
  0
LINE
  8
0
 10
34.5659
 20
-21.212
 11
35
 21
-21.25
  0
LINE
  8
0
 10
35
 20
-21.25
 11
35.4341
 21
-21.212
  0
LINE
  8
0
 10
35.4341
 20
-21.212
 11
35.8551
 21
-21.0992
  0
LINE
  8
0
 10
35.8551
 20
-21.0992
 11
36.25
 21
-20.9151
  0
LINE
  8
0
 10
36.25
 20
-20.9151
 11
36.607
 21
-20.6651
  0
LINE
  8
0
 10
36.607
 20
-20.6651
 11
36.9151
 21
-20.357
  0
LINE
  8
0
 10
36.9151
 20
-20.357
 11
37.1651
 21
-20
  0
LINE
  8
0
 10
37.1651
 20
-20
 11
37.3492
 21
-19.6051
  0
LINE
  8
0
 10
37.3492
 20
-19.6051
 11
37.462
 21
-19.1841
  0
LINE
  8
0
 10
37.462
 20
-19.1841
 11
37.5
 21
-18.75
  0
LINE
  8
0
 10
37.5
 20
-18.75
 11
37.462
 21
-18.3159
  0
LINE
  8
0
 10
37.462
 20
-18.3159
 11
37.3492
 21
-17.8949
  0
LINE
  8
0
 10
37.3492
 20
-17.8949
 11
37.1651
 21
-17.5
  0
LINE
  8
0
 10
37.1651
 20
-17.5
 11
36.9151
 21
-17.143
  0
LINE
  8
0
 10
36.9151
 20
-17.143
 11
36.7721
 21
-17
  0
LINE
  8
0
 10
36.7721
 20
-17
 11
44.1673
 21
-17
  0
LINE
  8
0
 10
44.1673
 20
-17
 11
44.1673
 21
-25.5
  0
LINE
  8
0
 10
44.1673
 20
-25.5
 11
0
 21
-51
  0
LINE
  8
0
 10
0
 20
-51
 11
-17
 21
-41.185
  0
LINE
  8
0
 10
-5.125
 20
-68
 11
-5.04714
 21
-67.1101
  0
LINE
  8
0
 10
-5.04714
 20
-67.1101
 11
-4.81592
 21
-66.2471
  0
LINE
  8
0
 10
-4.81592
 20
-66.2471
 11
-4.43838
 21
-65.4375
  0
LINE
  8
0
 10
-4.43838
 20
-65.4375
 11
-3.92598
 21
-64.7057
  0
LINE
  8
0
 10
-3.92598
 20
-64.7057
 11
-3.29429
 21
-64.074
  0
LINE
  8
0
 10
-3.29429
 20
-64.074
 11
-2.5625
 21
-63.5616
  0
LINE
  8
0
 10
-2.5625
 20
-63.5616
 11
-1.75285
 21
-63.1841
  0
LINE
  8
0
 10
-1.75285
 20
-63.1841
 11
-0.889946
 21
-62.9529
  0
LINE
  8
0
 10
-0.889946
 20
-62.9529
 11
0
 21
-62.875
  0
LINE
  8
0
 10
0
 20
-62.875
 11
0.889946
 21
-62.9529
  0
LINE
  8
0
 10
0.889946
 20
-62.9529
 11
1.75285
 21
-63.1841
  0
LINE
  8
0
 10
1.75285
 20
-63.1841
 11
2.5625
 21
-63.5616
  0
LINE
  8
0
 10
2.5625
 20
-63.5616
 11
3.29429
 21
-64.074
  0
LINE
  8
0
 10
3.29429
 20
-64.074
 11
3.92598
 21
-64.7057
  0
LINE
  8
0
 10
3.92598
 20
-64.7057
 11
4.43838
 21
-65.4375
  0
LINE
  8
0
 10
4.43838
 20
-65.4375
 11
4.81592
 21
-66.2471
  0
LINE
  8
0
 10
4.81592
 20
-66.2471
 11
5.04714
 21
-67.1101
  0
LINE
  8
0
 10
5.04714
 20
-67.1101
 11
5.125
 21
-68
  0
LINE
  8
0
 10
5.125
 20
-68
 11
5.04714
 21
-68.8899
  0
LINE
  8
0
 10
5.04714
 20
-68.8899
 11
4.81592
 21
-69.7529
  0
LINE
  8
0
 10
4.81592
 20
-69.7529
 11
4.43838
 21
-70.5625
  0
LINE
  8
0
 10
4.43838
 20
-70.5625
 11
3.92598
 21
-71.2943
  0
LINE
  8
0
 10
3.92598
 20
-71.2943
 11
3.29429
 21
-71.926
  0
LINE
  8
0
 10
3.29429
 20
-71.926
 11
2.5625
 21
-72.4384
  0
LINE
  8
0
 10
2.5625
 20
-72.4384
 11
1.75285
 21
-72.8159
  0
LINE
  8
0
 10
1.75285
 20
-72.8159
 11
0.889946
 21
-73.0471
  0
LINE
  8
0
 10
0.889946
 20
-73.0471
 11
0
 21
-73.125
  0
LINE
  8
0
 10
0
 20
-73.125
 11
-0.889946
 21
-73.0471
  0
LINE
  8
0
 10
-0.889946
 20
-73.0471
 11
-1.75285
 21
-72.8159
  0
LINE
  8
0
 10
-1.75285
 20
-72.8159
 11
-2.5625
 21
-72.4384
  0
LINE
  8
0
 10
-2.5625
 20
-72.4384
 11
-3.29429
 21
-71.926
  0
LINE
  8
0
 10
-3.29429
 20
-71.926
 11
-3.92598
 21
-71.2943
  0
LINE
  8
0
 10
-3.92598
 20
-71.2943
 11
-4.43838
 21
-70.5625
  0
LINE
  8
0
 10
-4.43838
 20
-70.5625
 11
-4.81592
 21
-69.7529
  0
LINE
  8
0
 10
-4.81592
 20
-69.7529
 11
-5.04714
 21
-68.8899
  0
LINE
  8
0
 10
-5.04714
 20
-68.8899
 11
-5.125
 21
-68
  0
LINE
  8
0
 10
-5.125
 20
68
 11
-5.04714
 21
68.8899
  0
LINE
  8
0
 10
-5.04714
 20
68.8899
 11
-4.81592
 21
69.7529
  0
LINE
  8
0
 10
-4.81592
 20
69.7529
 11
-4.43838
 21
70.5625
  0
LINE
  8
0
 10
-4.43838
 20
70.5625
 11
-3.92598
 21
71.2943
  0
LINE
  8
0
 10
-3.92598
 20
71.2943
 11
-3.29429
 21
71.926
  0
LINE
  8
0
 10
-3.29429
 20
71.926
 11
-2.5625
 21
72.4384
  0
LINE
  8
0
 10
-2.5625
 20
72.4384
 11
-1.75285
 21
72.8159
  0
LINE
  8
0
 10
-1.75285
 20
72.8159
 11
-0.889946
 21
73.0471
  0
LINE
  8
0
 10
-0.889946
 20
73.0471
 11
0
 21
73.125
  0
LINE
  8
0
 10
0
 20
73.125
 11
0.889946
 21
73.0471
  0
LINE
  8
0
 10
0.889946
 20
73.0471
 11
1.75285
 21
72.8159
  0
LINE
  8
0
 10
1.75285
 20
72.8159
 11
2.5625
 21
72.4384
  0
LINE
  8
0
 10
2.5625
 20
72.4384
 11
3.29429
 21
71.926
  0
LINE
  8
0
 10
3.29429
 20
71.926
 11
3.92598
 21
71.2943
  0
LINE
  8
0
 10
3.92598
 20
71.2943
 11
4.43838
 21
70.5625
  0
LINE
  8
0
 10
4.43838
 20
70.5625
 11
4.81592
 21
69.7529
  0
LINE
  8
0
 10
4.81592
 20
69.7529
 11
5.04714
 21
68.8899
  0
LINE
  8
0
 10
5.04714
 20
68.8899
 11
5.125
 21
68
  0
LINE
  8
0
 10
5.125
 20
68
 11
5.04714
 21
67.1101
  0
LINE
  8
0
 10
5.04714
 20
67.1101
 11
4.81592
 21
66.2471
  0
LINE
  8
0
 10
4.81592
 20
66.2471
 11
4.43838
 21
65.4375
  0
LINE
  8
0
 10
4.43838
 20
65.4375
 11
3.92598
 21
64.7057
  0
LINE
  8
0
 10
3.92598
 20
64.7057
 11
3.29429
 21
64.074
  0
LINE
  8
0
 10
3.29429
 20
64.074
 11
2.5625
 21
63.5616
  0
LINE
  8
0
 10
2.5625
 20
63.5616
 11
1.75285
 21
63.1841
  0
LINE
  8
0
 10
1.75285
 20
63.1841
 11
0.889946
 21
62.9529
  0
LINE
  8
0
 10
0.889946
 20
62.9529
 11
0
 21
62.875
  0
LINE
  8
0
 10
0
 20
62.875
 11
-0.889946
 21
62.9529
  0
LINE
  8
0
 10
-0.889946
 20
62.9529
 11
-1.75285
 21
63.1841
  0
LINE
  8
0
 10
-1.75285
 20
63.1841
 11
-2.5625
 21
63.5616
  0
LINE
  8
0
 10
-2.5625
 20
63.5616
 11
-3.29429
 21
64.074
  0
LINE
  8
0
 10
-3.29429
 20
64.074
 11
-3.92598
 21
64.7057
  0
LINE
  8
0
 10
-3.92598
 20
64.7057
 11
-4.43838
 21
65.4375
  0
LINE
  8
0
 10
-4.43838
 20
65.4375
 11
-4.81592
 21
66.2471
  0
LINE
  8
0
 10
-4.81592
 20
66.2471
 11
-5.04714
 21
67.1101
  0
LINE
  8
0
 10
-5.04714
 20
67.1101
 11
-5.125
 21
68
  0
LINE
  8
0
 10
23.15
 20
-42.8683
 11
23.1743
 21
-42.5904
  0
LINE
  8
0
 10
23.1743
 20
-42.5904
 11
23.2465
 21
-42.321
  0
LINE
  8
0
 10
23.2465
 20
-42.321
 11
23.3644
 21
-42.0683
  0
LINE
  8
0
 10
23.3644
 20
-42.0683
 11
23.5243
 21
-41.8398
  0
LINE
  8
0
 10
23.5243
 20
-41.8398
 11
23.7215
 21
-41.6426
  0
LINE
  8
0
 10
23.7215
 20
-41.6426
 11
23.95
 21
-41.4826
  0
LINE
  8
0
 10
23.95
 20
-41.4826
 11
24.2028
 21
-41.3647
  0
LINE
  8
0
 10
24.2028
 20
-41.3647
 11
24.4722
 21
-41.2926
  0
LINE
  8
0
 10
24.4722
 20
-41.2926
 11
24.75
 21
-41.2683
  0
LINE
  8
0
 10
24.75
 20
-41.2683
 11
25.0278
 21
-41.2926
  0
LINE
  8
0
 10
25.0278
 20
-41.2926
 11
25.2972
 21
-41.3647
  0
LINE
  8
0
 10
25.2972
 20
-41.3647
 11
25.55
 21
-41.4826
  0
LINE
  8
0
 10
25.55
 20
-41.4826
 11
25.7785
 21
-41.6426
  0
LINE
  8
0
 10
25.7785
 20
-41.6426
 11
25.9757
 21
-41.8398
  0
LINE
  8
0
 10
25.9757
 20
-41.8398
 11
26.1356
 21
-42.0683
  0
LINE
  8
0
 10
26.1356
 20
-42.0683
 11
26.2535
 21
-42.321
  0
LINE
  8
0
 10
26.2535
 20
-42.321
 11
26.3257
 21
-42.5904
  0
LINE
  8
0
 10
26.3257
 20
-42.5904
 11
26.35
 21
-42.8683
  0
LINE
  8
0
 10
26.35
 20
-42.8683
 11
26.3257
 21
-43.1461
  0
LINE
  8
0
 10
26.3257
 20
-43.1461
 11
26.2535
 21
-43.4155
  0
LINE
  8
0
 10
26.2535
 20
-43.4155
 11
26.1356
 21
-43.6683
  0
LINE
  8
0
 10
26.1356
 20
-43.6683
 11
25.9757
 21
-43.8967
  0
LINE
  8
0
 10
25.9757
 20
-43.8967
 11
25.7785
 21
-44.0939
  0
LINE
  8
0
 10
25.7785
 20
-44.0939
 11
25.55
 21
-44.2539
  0
LINE
  8
0
 10
25.55
 20
-44.2539
 11
25.2972
 21
-44.3718
  0
LINE
  8
0
 10
25.2972
 20
-44.3718
 11
25.0278
 21
-44.4439
  0
LINE
  8
0
 10
25.0278
 20
-44.4439
 11
24.75
 21
-44.4683
  0
LINE
  8
0
 10
24.75
 20
-44.4683
 11
24.4722
 21
-44.4439
  0
LINE
  8
0
 10
24.4722
 20
-44.4439
 11
24.2028
 21
-44.3718
  0
LINE
  8
0
 10
24.2028
 20
-44.3718
 11
23.95
 21
-44.2539
  0
LINE
  8
0
 10
23.95
 20
-44.2539
 11
23.7215
 21
-44.0939
  0
LINE
  8
0
 10
23.7215
 20
-44.0939
 11
23.5243
 21
-43.8967
  0
LINE
  8
0
 10
23.5243
 20
-43.8967
 11
23.3644
 21
-43.6683
  0
LINE
  8
0
 10
23.3644
 20
-43.6683
 11
23.2465
 21
-43.4155
  0
LINE
  8
0
 10
23.2465
 20
-43.4155
 11
23.1743
 21
-43.1461
  0
LINE
  8
0
 10
23.1743
 20
-43.1461
 11
23.15
 21
-42.8683
  0
LINE
  8
0
 10
23.15
 20
42.8683
 11
23.1743
 21
43.1461
  0
LINE
  8
0
 10
23.1743
 20
43.1461
 11
23.2465
 21
43.4155
  0
LINE
  8
0
 10
23.2465
 20
43.4155
 11
23.3644
 21
43.6683
  0
LINE
  8
0
 10
23.3644
 20
43.6683
 11
23.5243
 21
43.8967
  0
LINE
  8
0
 10
23.5243
 20
43.8967
 11
23.7215
 21
44.0939
  0
LINE
  8
0
 10
23.7215
 20
44.0939
 11
23.95
 21
44.2539
  0
LINE
  8
0
 10
23.95
 20
44.2539
 11
24.2028
 21
44.3718
  0
LINE
  8
0
 10
24.2028
 20
44.3718
 11
24.4722
 21
44.4439
  0
LINE
  8
0
 10
24.4722
 20
44.4439
 11
24.75
 21
44.4683
  0
LINE
  8
0
 10
24.75
 20
44.4683
 11
25.0278
 21
44.4439
  0
LINE
  8
0
 10
25.0278
 20
44.4439
 11
25.2972
 21
44.3718
  0
LINE
  8
0
 10
25.2972
 20
44.3718
 11
25.55
 21
44.2539
  0
LINE
  8
0
 10
25.55
 20
44.2539
 11
25.7785
 21
44.0939
  0
LINE
  8
0
 10
25.7785
 20
44.0939
 11
25.9757
 21
43.8967
  0
LINE
  8
0
 10
25.9757
 20
43.8967
 11
26.1356
 21
43.6683
  0
LINE
  8
0
 10
26.1356
 20
43.6683
 11
26.2535
 21
43.4155
  0
LINE
  8
0
 10
26.2535
 20
43.4155
 11
26.3257
 21
43.1461
  0
LINE
  8
0
 10
26.3257
 20
43.1461
 11
26.35
 21
42.8683
  0
LINE
  8
0
 10
26.35
 20
42.8683
 11
26.3257
 21
42.5904
  0
LINE
  8
0
 10
26.3257
 20
42.5904
 11
26.2535
 21
42.321
  0
LINE
  8
0
 10
26.2535
 20
42.321
 11
26.1356
 21
42.0683
  0
LINE
  8
0
 10
26.1356
 20
42.0683
 11
25.9757
 21
41.8398
  0
LINE
  8
0
 10
25.9757
 20
41.8398
 11
25.7785
 21
41.6426
  0
LINE
  8
0
 10
25.7785
 20
41.6426
 11
25.55
 21
41.4826
  0
LINE
  8
0
 10
25.55
 20
41.4826
 11
25.2972
 21
41.3647
  0
LINE
  8
0
 10
25.2972
 20
41.3647
 11
25.0278
 21
41.2926
  0
LINE
  8
0
 10
25.0278
 20
41.2926
 11
24.75
 21
41.2683
  0
LINE
  8
0
 10
24.75
 20
41.2683
 11
24.4722
 21
41.2926
  0
LINE
  8
0
 10
24.4722
 20
41.2926
 11
24.2028
 21
41.3647
  0
LINE
  8
0
 10
24.2028
 20
41.3647
 11
23.95
 21
41.4826
  0
LINE
  8
0
 10
23.95
 20
41.4826
 11
23.7215
 21
41.6426
  0
LINE
  8
0
 10
23.7215
 20
41.6426
 11
23.5243
 21
41.8398
  0
LINE
  8
0
 10
23.5243
 20
41.8398
 11
23.3644
 21
42.0683
  0
LINE
  8
0
 10
23.3644
 20
42.0683
 11
23.2465
 21
42.321
  0
LINE
  8
0
 10
23.2465
 20
42.321
 11
23.1743
 21
42.5904
  0
LINE
  8
0
 10
23.1743
 20
42.5904
 11
23.15
 21
42.8683
  0
LINE
  8
0
 10
32
 20
-12.5
 11
32.0152
 21
-12.3264
  0
LINE
  8
0
 10
32.0152
 20
-12.3264
 11
32.0603
 21
-12.158
  0
LINE
  8
0
 10
32.0603
 20
-12.158
 11
32.134
 21
-12
  0
LINE
  8
0
 10
32.134
 20
-12
 11
32.234
 21
-11.8572
  0
LINE
  8
0
 10
32.234
 20
-11.8572
 11
32.3572
 21
-11.734
  0
LINE
  8
0
 10
32.3572
 20
-11.734
 11
32.5
 21
-11.634
  0
LINE
  8
0
 10
32.5
 20
-11.634
 11
32.658
 21
-11.5603
  0
LINE
  8
0
 10
32.658
 20
-11.5603
 11
32.8264
 21
-11.5152
  0
LINE
  8
0
 10
32.8264
 20
-11.5152
 11
33
 21
-11.5
  0
LINE
  8
0
 10
33
 20
-11.5
 11
33.1736
 21
-11.5152
  0
LINE
  8
0
 10
33.1736
 20
-11.5152
 11
33.342
 21
-11.5603
  0
LINE
  8
0
 10
33.342
 20
-11.5603
 11
33.5
 21
-11.634
  0
LINE
  8
0
 10
33.5
 20
-11.634
 11
33.6428
 21
-11.734
  0
LINE
  8
0
 10
33.6428
 20
-11.734
 11
33.766
 21
-11.8572
  0
LINE
  8
0
 10
33.766
 20
-11.8572
 11
33.866
 21
-12
  0
LINE
  8
0
 10
33.866
 20
-12
 11
33.9397
 21
-12.158
  0
LINE
  8
0
 10
33.9397
 20
-12.158
 11
33.9848
 21
-12.3264
  0
LINE
  8
0
 10
33.9848
 20
-12.3264
 11
34
 21
-12.5
  0
LINE
  8
0
 10
34
 20
-12.5
 11
33.9848
 21
-12.6736
  0
LINE
  8
0
 10
33.9848
 20
-12.6736
 11
33.9397
 21
-12.842
  0
LINE
  8
0
 10
33.9397
 20
-12.842
 11
33.866
 21
-13
  0
LINE
  8
0
 10
33.866
 20
-13
 11
33.766
 21
-13.1428
  0
LINE
  8
0
 10
33.766
 20
-13.1428
 11
33.6428
 21
-13.266
  0
LINE
  8
0
 10
33.6428
 20
-13.266
 11
33.5
 21
-13.366
  0
LINE
  8
0
 10
33.5
 20
-13.366
 11
33.342
 21
-13.4397
  0
LINE
  8
0
 10
33.342
 20
-13.4397
 11
33.1736
 21
-13.4848
  0
LINE
  8
0
 10
33.1736
 20
-13.4848
 11
33
 21
-13.5
  0
LINE
  8
0
 10
33
 20
-13.5
 11
32.8264
 21
-13.4848
  0
LINE
  8
0
 10
32.8264
 20
-13.4848
 11
32.658
 21
-13.4397
  0
LINE
  8
0
 10
32.658
 20
-13.4397
 11
32.5
 21
-13.366
  0
LINE
  8
0
 10
32.5
 20
-13.366
 11
32.3572
 21
-13.266
  0
LINE
  8
0
 10
32.3572
 20
-13.266
 11
32.234
 21
-13.1428
  0
LINE
  8
0
 10
32.234
 20
-13.1428
 11
32.134
 21
-13
  0
LINE
  8
0
 10
32.134
 20
-13
 11
32.0603
 21
-12.842
  0
LINE
  8
0
 10
32.0603
 20
-12.842
 11
32.0152
 21
-12.6736
  0
LINE
  8
0
 10
32.0152
 20
-12.6736
 11
32
 21
-12.5
  0
LINE
  8
0
 10
32
 20
12.5
 11
32.0152
 21
12.6736
  0
LINE
  8
0
 10
32.0152
 20
12.6736
 11
32.0603
 21
12.842
  0
LINE
  8
0
 10
32.0603
 20
12.842
 11
32.134
 21
13
  0
LINE
  8
0
 10
32.134
 20
13
 11
32.234
 21
13.1428
  0
LINE
  8
0
 10
32.234
 20
13.1428
 11
32.3572
 21
13.266
  0
LINE
  8
0
 10
32.3572
 20
13.266
 11
32.5
 21
13.366
  0
LINE
  8
0
 10
32.5
 20
13.366
 11
32.658
 21
13.4397
  0
LINE
  8
0
 10
32.658
 20
13.4397
 11
32.8264
 21
13.4848
  0
LINE
  8
0
 10
32.8264
 20
13.4848
 11
33
 21
13.5
  0
LINE
  8
0
 10
33
 20
13.5
 11
33.1736
 21
13.4848
  0
LINE
  8
0
 10
33.1736
 20
13.4848
 11
33.342
 21
13.4397
  0
LINE
  8
0
 10
33.342
 20
13.4397
 11
33.5
 21
13.366
  0
LINE
  8
0
 10
33.5
 20
13.366
 11
33.6428
 21
13.266
  0
LINE
  8
0
 10
33.6428
 20
13.266
 11
33.766
 21
13.1428
  0
LINE
  8
0
 10
33.766
 20
13.1428
 11
33.866
 21
13
  0
LINE
  8
0
 10
33.866
 20
13
 11
33.9397
 21
12.842
  0
LINE
  8
0
 10
33.9397
 20
12.842
 11
33.9848
 21
12.6736
  0
LINE
  8
0
 10
33.9848
 20
12.6736
 11
34
 21
12.5
  0
LINE
  8
0
 10
34
 20
12.5
 11
33.9848
 21
12.3264
  0
LINE
  8
0
 10
33.9848
 20
12.3264
 11
33.9397
 21
12.158
  0
LINE
  8
0
 10
33.9397
 20
12.158
 11
33.866
 21
12
  0
LINE
  8
0
 10
33.866
 20
12
 11
33.766
 21
11.8572
  0
LINE
  8
0
 10
33.766
 20
11.8572
 11
33.6428
 21
11.734
  0
LINE
  8
0
 10
33.6428
 20
11.734
 11
33.5
 21
11.634
  0
LINE
  8
0
 10
33.5
 20
11.634
 11
33.342
 21
11.5603
  0
LINE
  8
0
 10
33.342
 20
11.5603
 11
33.1736
 21
11.5152
  0
LINE
  8
0
 10
33.1736
 20
11.5152
 11
33
 21
11.5
  0
LINE
  8
0
 10
33
 20
11.5
 11
32.8264
 21
11.5152
  0
LINE
  8
0
 10
32.8264
 20
11.5152
 11
32.658
 21
11.5603
  0
LINE
  8
0
 10
32.658
 20
11.5603
 11
32.5
 21
11.634
  0
LINE
  8
0
 10
32.5
 20
11.634
 11
32.3572
 21
11.734
  0
LINE
  8
0
 10
32.3572
 20
11.734
 11
32.234
 21
11.8572
  0
LINE
  8
0
 10
32.234
 20
11.8572
 11
32.134
 21
12
  0
LINE
  8
0
 10
32.134
 20
12
 11
32.0603
 21
12.158
  0
LINE
  8
0
 10
32.0603
 20
12.158
 11
32.0152
 21
12.3264
  0
LINE
  8
0
 10
32.0152
 20
12.3264
 11
32
 21
12.5
  0
LINE
  8
0
 10
34
 20
-38.25
 11
34.0152
 21
-38.0764
  0
LINE
  8
0
 10
34.0152
 20
-38.0764
 11
34.0603
 21
-37.908
  0
LINE
  8
0
 10
34.0603
 20
-37.908
 11
34.134
 21
-37.75
  0
LINE
  8
0
 10
34.134
 20
-37.75
 11
34.234
 21
-37.6072
  0
LINE
  8
0
 10
34.234
 20
-37.6072
 11
34.3572
 21
-37.484
  0
LINE
  8
0
 10
34.3572
 20
-37.484
 11
34.5
 21
-37.384
  0
LINE
  8
0
 10
34.5
 20
-37.384
 11
34.658
 21
-37.3103
  0
LINE
  8
0
 10
34.658
 20
-37.3103
 11
34.8264
 21
-37.2652
  0
LINE
  8
0
 10
34.8264
 20
-37.2652
 11
35
 21
-37.25
  0
LINE
  8
0
 10
35
 20
-37.25
 11
35.1736
 21
-37.2652
  0
LINE
  8
0
 10
35.1736
 20
-37.2652
 11
35.342
 21
-37.3103
  0
LINE
  8
0
 10
35.342
 20
-37.3103
 11
35.5
 21
-37.384
  0
LINE
  8
0
 10
35.5
 20
-37.384
 11
35.6428
 21
-37.484
  0
LINE
  8
0
 10
35.6428
 20
-37.484
 11
35.766
 21
-37.6072
  0
LINE
  8
0
 10
35.766
 20
-37.6072
 11
35.866
 21
-37.75
  0
LINE
  8
0
 10
35.866
 20
-37.75
 11
35.9397
 21
-37.908
  0
LINE
  8
0
 10
35.9397
 20
-37.908
 11
35.9848
 21
-38.0764
  0
LINE
  8
0
 10
35.9848
 20
-38.0764
 11
36
 21
-38.25
  0
LINE
  8
0
 10
36
 20
-38.25
 11
35.9848
 21
-38.4236
  0
LINE
  8
0
 10
35.9848
 20
-38.4236
 11
35.9397
 21
-38.592
  0
LINE
  8
0
 10
35.9397
 20
-38.592
 11
35.866
 21
-38.75
  0
LINE
  8
0
 10
35.866
 20
-38.75
 11
35.766
 21
-38.8928
  0
LINE
  8
0
 10
35.766
 20
-38.8928
 11
35.6428
 21
-39.016
  0
LINE
  8
0
 10
35.6428
 20
-39.016
 11
35.5
 21
-39.116
  0
LINE
  8
0
 10
35.5
 20
-39.116
 11
35.342
 21
-39.1897
  0
LINE
  8
0
 10
35.342
 20
-39.1897
 11
35.1736
 21
-39.2348
  0
LINE
  8
0
 10
35.1736
 20
-39.2348
 11
35
 21
-39.25
  0
LINE
  8
0
 10
35
 20
-39.25
 11
34.8264
 21
-39.2348
  0
LINE
  8
0
 10
34.8264
 20
-39.2348
 11
34.658
 21
-39.1897
  0
LINE
  8
0
 10
34.658
 20
-39.1897
 11
34.5
 21
-39.116
  0
LINE
  8
0
 10
34.5
 20
-39.116
 11
34.3572
 21
-39.016
  0
LINE
  8
0
 10
34.3572
 20
-39.016
 11
34.234
 21
-38.8928
  0
LINE
  8
0
 10
34.234
 20
-38.8928
 11
34.134
 21
-38.75
  0
LINE
  8
0
 10
34.134
 20
-38.75
 11
34.0603
 21
-38.592
  0
LINE
  8
0
 10
34.0603
 20
-38.592
 11
34.0152
 21
-38.4236
  0
LINE
  8
0
 10
34.0152
 20
-38.4236
 11
34
 21
-38.25
  0
LINE
  8
0
 10
34
 20
-18.75
 11
34.0152
 21
-18.5764
  0
LINE
  8
0
 10
34.0152
 20
-18.5764
 11
34.0603
 21
-18.408
  0
LINE
  8
0
 10
34.0603
 20
-18.408
 11
34.134
 21
-18.25
  0
LINE
  8
0
 10
34.134
 20
-18.25
 11
34.234
 21
-18.1072
  0
LINE
  8
0
 10
34.234
 20
-18.1072
 11
34.3572
 21
-17.984
  0
LINE
  8
0
 10
34.3572
 20
-17.984
 11
34.5
 21
-17.884
  0
LINE
  8
0
 10
34.5
 20
-17.884
 11
34.658
 21
-17.8103
  0
LINE
  8
0
 10
34.658
 20
-17.8103
 11
34.8264
 21
-17.7652
  0
LINE
  8
0
 10
34.8264
 20
-17.7652
 11
35
 21
-17.75
  0
LINE
  8
0
 10
35
 20
-17.75
 11
35.1736
 21
-17.7652
  0
LINE
  8
0
 10
35.1736
 20
-17.7652
 11
35.342
 21
-17.8103
  0
LINE
  8
0
 10
35.342
 20
-17.8103
 11
35.5
 21
-17.884
  0
LINE
  8
0
 10
35.5
 20
-17.884
 11
35.6428
 21
-17.984
  0
LINE
  8
0
 10
35.6428
 20
-17.984
 11
35.766
 21
-18.1072
  0
LINE
  8
0
 10
35.766
 20
-18.1072
 11
35.866
 21
-18.25
  0
LINE
  8
0
 10
35.866
 20
-18.25
 11
35.9397
 21
-18.408
  0
LINE
  8
0
 10
35.9397
 20
-18.408
 11
35.9848
 21
-18.5764
  0
LINE
  8
0
 10
35.9848
 20
-18.5764
 11
36
 21
-18.75
  0
LINE
  8
0
 10
36
 20
-18.75
 11
35.9848
 21
-18.9236
  0
LINE
  8
0
 10
35.9848
 20
-18.9236
 11
35.9397
 21
-19.092
  0
LINE
  8
0
 10
35.9397
 20
-19.092
 11
35.866
 21
-19.25
  0
LINE
  8
0
 10
35.866
 20
-19.25
 11
35.766
 21
-19.3928
  0
LINE
  8
0
 10
35.766
 20
-19.3928
 11
35.6428
 21
-19.516
  0
LINE
  8
0
 10
35.6428
 20
-19.516
 11
35.5
 21
-19.616
  0
LINE
  8
0
 10
35.5
 20
-19.616
 11
35.342
 21
-19.6897
  0
LINE
  8
0
 10
35.342
 20
-19.6897
 11
35.1736
 21
-19.7348
  0
LINE
  8
0
 10
35.1736
 20
-19.7348
 11
35
 21
-19.75
  0
LINE
  8
0
 10
35
 20
-19.75
 11
34.8264
 21
-19.7348
  0
LINE
  8
0
 10
34.8264
 20
-19.7348
 11
34.658
 21
-19.6897
  0
LINE
  8
0
 10
34.658
 20
-19.6897
 11
34.5
 21
-19.616
  0
LINE
  8
0
 10
34.5
 20
-19.616
 11
34.3572
 21
-19.516
  0
LINE
  8
0
 10
34.3572
 20
-19.516
 11
34.234
 21
-19.3928
  0
LINE
  8
0
 10
34.234
 20
-19.3928
 11
34.134
 21
-19.25
  0
LINE
  8
0
 10
34.134
 20
-19.25
 11
34.0603
 21
-19.092
  0
LINE
  8
0
 10
34.0603
 20
-19.092
 11
34.0152
 21
-18.9236
  0
LINE
  8
0
 10
34.0152
 20
-18.9236
 11
34
 21
-18.75
  0
LINE
  8
0
 10
34
 20
18.75
 11
34.0152
 21
18.9236
  0
LINE
  8
0
 10
34.0152
 20
18.9236
 11
34.0603
 21
19.092
  0
LINE
  8
0
 10
34.0603
 20
19.092
 11
34.134
 21
19.25
  0
LINE
  8
0
 10
34.134
 20
19.25
 11
34.234
 21
19.3928
  0
LINE
  8
0
 10
34.234
 20
19.3928
 11
34.3572
 21
19.516
  0
LINE
  8
0
 10
34.3572
 20
19.516
 11
34.5
 21
19.616
  0
LINE
  8
0
 10
34.5
 20
19.616
 11
34.658
 21
19.6897
  0
LINE
  8
0
 10
34.658
 20
19.6897
 11
34.8264
 21
19.7348
  0
LINE
  8
0
 10
34.8264
 20
19.7348
 11
35
 21
19.75
  0
LINE
  8
0
 10
35
 20
19.75
 11
35.1736
 21
19.7348
  0
LINE
  8
0
 10
35.1736
 20
19.7348
 11
35.342
 21
19.6897
  0
LINE
  8
0
 10
35.342
 20
19.6897
 11
35.5
 21
19.616
  0
LINE
  8
0
 10
35.5
 20
19.616
 11
35.6428
 21
19.516
  0
LINE
  8
0
 10
35.6428
 20
19.516
 11
35.766
 21
19.3928
  0
LINE
  8
0
 10
35.766
 20
19.3928
 11
35.866
 21
19.25
  0
LINE
  8
0
 10
35.866
 20
19.25
 11
35.9397
 21
19.092
  0
LINE
  8
0
 10
35.9397
 20
19.092
 11
35.9848
 21
18.9236
  0
LINE
  8
0
 10
35.9848
 20
18.9236
 11
36
 21
18.75
  0
LINE
  8
0
 10
36
 20
18.75
 11
35.9848
 21
18.5764
  0
LINE
  8
0
 10
35.9848
 20
18.5764
 11
35.9397
 21
18.408
  0
LINE
  8
0
 10
35.9397
 20
18.408
 11
35.866
 21
18.25
  0
LINE
  8
0
 10
35.866
 20
18.25
 11
35.766
 21
18.1072
  0
LINE
  8
0
 10
35.766
 20
18.1072
 11
35.6428
 21
17.984
  0
LINE
  8
0
 10
35.6428
 20
17.984
 11
35.5
 21
17.884
  0
LINE
  8
0
 10
35.5
 20
17.884
 11
35.342
 21
17.8103
  0
LINE
  8
0
 10
35.342
 20
17.8103
 11
35.1736
 21
17.7652
  0
LINE
  8
0
 10
35.1736
 20
17.7652
 11
35
 21
17.75
  0
LINE
  8
0
 10
35
 20
17.75
 11
34.8264
 21
17.7652
  0
LINE
  8
0
 10
34.8264
 20
17.7652
 11
34.658
 21
17.8103
  0
LINE
  8
0
 10
34.658
 20
17.8103
 11
34.5
 21
17.884
  0
LINE
  8
0
 10
34.5
 20
17.884
 11
34.3572
 21
17.984
  0
LINE
  8
0
 10
34.3572
 20
17.984
 11
34.234
 21
18.1072
  0
LINE
  8
0
 10
34.234
 20
18.1072
 11
34.134
 21
18.25
  0
LINE
  8
0
 10
34.134
 20
18.25
 11
34.0603
 21
18.408
  0
LINE
  8
0
 10
34.0603
 20
18.408
 11
34.0152
 21
18.5764
  0
LINE
  8
0
 10
34.0152
 20
18.5764
 11
34
 21
18.75
  0
LINE
  8
0
 10
34
 20
38.25
 11
34.0152
 21
38.4236
  0
LINE
  8
0
 10
34.0152
 20
38.4236
 11
34.0603
 21
38.592
  0
LINE
  8
0
 10
34.0603
 20
38.592
 11
34.134
 21
38.75
  0
LINE
  8
0
 10
34.134
 20
38.75
 11
34.234
 21
38.8928
  0
LINE
  8
0
 10
34.234
 20
38.8928
 11
34.3572
 21
39.016
  0
LINE
  8
0
 10
34.3572
 20
39.016
 11
34.5
 21
39.116
  0
LINE
  8
0
 10
34.5
 20
39.116
 11
34.658
 21
39.1897
  0
LINE
  8
0
 10
34.658
 20
39.1897
 11
34.8264
 21
39.2348
  0
LINE
  8
0
 10
34.8264
 20
39.2348
 11
35
 21
39.25
  0
LINE
  8
0
 10
35
 20
39.25
 11
35.1736
 21
39.2348
  0
LINE
  8
0
 10
35.1736
 20
39.2348
 11
35.342
 21
39.1897
  0
LINE
  8
0
 10
35.342
 20
39.1897
 11
35.5
 21
39.116
  0
LINE
  8
0
 10
35.5
 20
39.116
 11
35.6428
 21
39.016
  0
LINE
  8
0
 10
35.6428
 20
39.016
 11
35.766
 21
38.8928
  0
LINE
  8
0
 10
35.766
 20
38.8928
 11
35.866
 21
38.75
  0
LINE
  8
0
 10
35.866
 20
38.75
 11
35.9397
 21
38.592
  0
LINE
  8
0
 10
35.9397
 20
38.592
 11
35.9848
 21
38.4236
  0
LINE
  8
0
 10
35.9848
 20
38.4236
 11
36
 21
38.25
  0
LINE
  8
0
 10
36
 20
38.25
 11
35.9848
 21
38.0764
  0
LINE
  8
0
 10
35.9848
 20
38.0764
 11
35.9397
 21
37.908
  0
LINE
  8
0
 10
35.9397
 20
37.908
 11
35.866
 21
37.75
  0
LINE
  8
0
 10
35.866
 20
37.75
 11
35.766
 21
37.6072
  0
LINE
  8
0
 10
35.766
 20
37.6072
 11
35.6428
 21
37.484
  0
LINE
  8
0
 10
35.6428
 20
37.484
 11
35.5
 21
37.384
  0
LINE
  8
0
 10
35.5
 20
37.384
 11
35.342
 21
37.3103
  0
LINE
  8
0
 10
35.342
 20
37.3103
 11
35.1736
 21
37.2652
  0
LINE
  8
0
 10
35.1736
 20
37.2652
 11
35
 21
37.25
  0
LINE
  8
0
 10
35
 20
37.25
 11
34.8264
 21
37.2652
  0
LINE
  8
0
 10
34.8264
 20
37.2652
 11
34.658
 21
37.3103
  0
LINE
  8
0
 10
34.658
 20
37.3103
 11
34.5
 21
37.384
  0
LINE
  8
0
 10
34.5
 20
37.384
 11
34.3572
 21
37.484
  0
LINE
  8
0
 10
34.3572
 20
37.484
 11
34.234
 21
37.6072
  0
LINE
  8
0
 10
34.234
 20
37.6072
 11
34.134
 21
37.75
  0
LINE
  8
0
 10
34.134
 20
37.75
 11
34.0603
 21
37.908
  0
LINE
  8
0
 10
34.0603
 20
37.908
 11
34.0152
 21
38.0764
  0
LINE
  8
0
 10
34.0152
 20
38.0764
 11
34
 21
38.25
  0
LINE
  8
0
 10
38.5
 20
-7
 11
38.5
 21
7
  0
LINE
  8
0
 10
38.5
 20
7
 11
44.1673
 21
7
  0
LINE
  8
0
 10
44.1673
 20
7
 11
44.1673
 21
-7
  0
LINE
  8
0
 10
44.1673
 20
-7
 11
38.5
 21
-7
  0
LINE
  8
0
 10
47.9
 20
0
 11
47.9243
 21
0.277837
  0
LINE
  8
0
 10
47.9243
 20
0.277837
 11
47.9965
 21
0.547232
  0
LINE
  8
0
 10
47.9965
 20
0.547232
 11
48.1144
 21
0.799999
  0
LINE
  8
0
 10
48.1144
 20
0.799999
 11
48.2743
 21
1.02846
  0
LINE
  8
0
 10
48.2743
 20
1.02846
 11
48.4715
 21
1.22567
  0
LINE
  8
0
 10
48.4715
 20
1.22567
 11
48.7
 21
1.38564
  0
LINE
  8
0
 10
48.7
 20
1.38564
 11
48.9528
 21
1.50351
  0
LINE
  8
0
 10
48.9528
 20
1.50351
 11
49.2222
 21
1.57569
  0
LINE
  8
0
 10
49.2222
 20
1.57569
 11
49.5
 21
1.6
  0
LINE
  8
0
 10
49.5
 20
1.6
 11
49.7778
 21
1.57569
  0
LINE
  8
0
 10
49.7778
 20
1.57569
 11
50.0472
 21
1.50351
  0
LINE
  8
0
 10
50.0472
 20
1.50351
 11
50.3
 21
1.38564
  0
LINE
  8
0
 10
50.3
 20
1.38564
 11
50.5285
 21
1.22567
  0
LINE
  8
0
 10
50.5285
 20
1.22567
 11
50.7257
 21
1.02846
  0
LINE
  8
0
 10
50.7257
 20
1.02846
 11
50.8856
 21
0.799999
  0
LINE
  8
0
 10
50.8856
 20
0.799999
 11
51.0035
 21
0.547232
  0
LINE
  8
0
 10
51.0035
 20
0.547232
 11
51.0757
 21
0.277837
  0
LINE
  8
0
 10
51.0757
 20
0.277837
 11
51.1
 21
0
  0
LINE
  8
0
 10
51.1
 20
0
 11
51.0757
 21
-0.277837
  0
LINE
  8
0
 10
51.0757
 20
-0.277837
 11
51.0035
 21
-0.547232
  0
LINE
  8
0
 10
51.0035
 20
-0.547232
 11
50.8856
 21
-0.799999
  0
LINE
  8
0
 10
50.8856
 20
-0.799999
 11
50.7257
 21
-1.02846
  0
LINE
  8
0
 10
50.7257
 20
-1.02846
 11
50.5285
 21
-1.22567
  0
LINE
  8
0
 10
50.5285
 20
-1.22567
 11
50.3
 21
-1.38564
  0
LINE
  8
0
 10
50.3
 20
-1.38564
 11
50.0472
 21
-1.50351
  0
LINE
  8
0
 10
50.0472
 20
-1.50351
 11
49.7778
 21
-1.57569
  0
LINE
  8
0
 10
49.7778
 20
-1.57569
 11
49.5
 21
-1.6
  0
LINE
  8
0
 10
49.5
 20
-1.6
 11
49.2222
 21
-1.57569
  0
LINE
  8
0
 10
49.2222
 20
-1.57569
 11
48.9528
 21
-1.50351
  0
LINE
  8
0
 10
48.9528
 20
-1.50351
 11
48.7
 21
-1.38564
  0
LINE
  8
0
 10
48.7
 20
-1.38564
 11
48.4715
 21
-1.22567
  0
LINE
  8
0
 10
48.4715
 20
-1.22567
 11
48.2743
 21
-1.02846
  0
LINE
  8
0
 10
48.2743
 20
-1.02846
 11
48.1144
 21
-0.799999
  0
LINE
  8
0
 10
48.1144
 20
-0.799999
 11
47.9965
 21
-0.547232
  0
LINE
  8
0
 10
47.9965
 20
-0.547232
 11
47.9243
 21
-0.277837
  0
LINE
  8
0
 10
47.9243
 20
-0.277837
 11
47.9
 21
0
  0
LINE
  8
0
 10
53.7647
 20
-34
 11
53.8426
 21
-33.1101
  0
LINE
  8
0
 10
53.8426
 20
-33.1101
 11
54.0738
 21
-32.2471
  0
LINE
  8
0
 10
54.0738
 20
-32.2471
 11
54.4513
 21
-31.4375
  0
LINE
  8
0
 10
54.4513
 20
-31.4375
 11
54.9637
 21
-30.7057
  0
LINE
  8
0
 10
54.9637
 20
-30.7057
 11
55.5954
 21
-30.074
  0
LINE
  8
0
 10
55.5954
 20
-30.074
 11
56.3272
 21
-29.5616
  0
LINE
  8
0
 10
56.3272
 20
-29.5616
 11
57.1369
 21
-29.1841
  0
LINE
  8
0
 10
57.1369
 20
-29.1841
 11
57.9998
 21
-28.9529
  0
LINE
  8
0
 10
57.9998
 20
-28.9529
 11
58.8897
 21
-28.875
  0
LINE
  8
0
 10
58.8897
 20
-28.875
 11
59.7797
 21
-28.9529
  0
LINE
  8
0
 10
59.7797
 20
-28.9529
 11
60.6426
 21
-29.1841
  0
LINE
  8
0
 10
60.6426
 20
-29.1841
 11
61.4522
 21
-29.5616
  0
LINE
  8
0
 10
61.4522
 20
-29.5616
 11
62.184
 21
-30.074
  0
LINE
  8
0
 10
62.184
 20
-30.074
 11
62.8157
 21
-30.7057
  0
LINE
  8
0
 10
62.8157
 20
-30.7057
 11
63.3281
 21
-31.4375
  0
LINE
  8
0
 10
63.3281
 20
-31.4375
 11
63.7057
 21
-32.2471
  0
LINE
  8
0
 10
63.7057
 20
-32.2471
 11
63.9369
 21
-33.1101
  0
LINE
  8
0
 10
63.9369
 20
-33.1101
 11
64.0147
 21
-34
  0
LINE
  8
0
 10
64.0147
 20
-34
 11
63.9369
 21
-34.8899
  0
LINE
  8
0
 10
63.9369
 20
-34.8899
 11
63.7057
 21
-35.7529
  0
LINE
  8
0
 10
63.7057
 20
-35.7529
 11
63.3281
 21
-36.5625
  0
LINE
  8
0
 10
63.3281
 20
-36.5625
 11
62.8157
 21
-37.2943
  0
LINE
  8
0
 10
62.8157
 20
-37.2943
 11
62.184
 21
-37.926
  0
LINE
  8
0
 10
62.184
 20
-37.926
 11
61.4522
 21
-38.4384
  0
LINE
  8
0
 10
61.4522
 20
-38.4384
 11
60.6426
 21
-38.8159
  0
LINE
  8
0
 10
60.6426
 20
-38.8159
 11
59.7797
 21
-39.0471
  0
LINE
  8
0
 10
59.7797
 20
-39.0471
 11
58.8897
 21
-39.125
  0
LINE
  8
0
 10
58.8897
 20
-39.125
 11
57.9998
 21
-39.0471
  0
LINE
  8
0
 10
57.9998
 20
-39.0471
 11
57.1369
 21
-38.8159
  0
LINE
  8
0
 10
57.1369
 20
-38.8159
 11
56.3272
 21
-38.4384
  0
LINE
  8
0
 10
56.3272
 20
-38.4384
 11
55.5954
 21
-37.926
  0
LINE
  8
0
 10
55.5954
 20
-37.926
 11
54.9637
 21
-37.2943
  0
LINE
  8
0
 10
54.9637
 20
-37.2943
 11
54.4513
 21
-36.5625
  0
LINE
  8
0
 10
54.4513
 20
-36.5625
 11
54.0738
 21
-35.7529
  0
LINE
  8
0
 10
54.0738
 20
-35.7529
 11
53.8426
 21
-34.8899
  0
LINE
  8
0
 10
53.8426
 20
-34.8899
 11
53.7647
 21
-34
  0
LINE
  8
0
 10
53.7647
 20
34
 11
53.8426
 21
34.8899
  0
LINE
  8
0
 10
53.8426
 20
34.8899
 11
54.0738
 21
35.7529
  0
LINE
  8
0
 10
54.0738
 20
35.7529
 11
54.4513
 21
36.5625
  0
LINE
  8
0
 10
54.4513
 20
36.5625
 11
54.9637
 21
37.2943
  0
LINE
  8
0
 10
54.9637
 20
37.2943
 11
55.5954
 21
37.926
  0
LINE
  8
0
 10
55.5954
 20
37.926
 11
56.3272
 21
38.4384
  0
LINE
  8
0
 10
56.3272
 20
38.4384
 11
57.1369
 21
38.8159
  0
LINE
  8
0
 10
57.1369
 20
38.8159
 11
57.9998
 21
39.0471
  0
LINE
  8
0
 10
57.9998
 20
39.0471
 11
58.8897
 21
39.125
  0
LINE
  8
0
 10
58.8897
 20
39.125
 11
59.7797
 21
39.0471
  0
LINE
  8
0
 10
59.7797
 20
39.0471
 11
60.6426
 21
38.8159
  0
LINE
  8
0
 10
60.6426
 20
38.8159
 11
61.4522
 21
38.4384
  0
LINE
  8
0
 10
61.4522
 20
38.4384
 11
62.184
 21
37.926
  0
LINE
  8
0
 10
62.184
 20
37.926
 11
62.8157
 21
37.2943
  0
LINE
  8
0
 10
62.8157
 20
37.2943
 11
63.3281
 21
36.5625
  0
LINE
  8
0
 10
63.3281
 20
36.5625
 11
63.7057
 21
35.7529
  0
LINE
  8
0
 10
63.7057
 20
35.7529
 11
63.9369
 21
34.8899
  0
LINE
  8
0
 10
63.9369
 20
34.8899
 11
64.0147
 21
34
  0
LINE
  8
0
 10
64.0147
 20
34
 11
63.9369
 21
33.1101
  0
LINE
  8
0
 10
63.9369
 20
33.1101
 11
63.7057
 21
32.2471
  0
LINE
  8
0
 10
63.7057
 20
32.2471
 11
63.3281
 21
31.4375
  0
LINE
  8
0
 10
63.3281
 20
31.4375
 11
62.8157
 21
30.7057
  0
LINE
  8
0
 10
62.8157
 20
30.7057
 11
62.184
 21
30.074
  0
LINE
  8
0
 10
62.184
 20
30.074
 11
61.4522
 21
29.5616
  0
LINE
  8
0
 10
61.4522
 20
29.5616
 11
60.6426
 21
29.1841
  0
LINE
  8
0
 10
60.6426
 20
29.1841
 11
59.7797
 21
28.9529
  0
LINE
  8
0
 10
59.7797
 20
28.9529
 11
58.8897
 21
28.875
  0
LINE
  8
0
 10
58.8897
 20
28.875
 11
57.9998
 21
28.9529
  0
LINE
  8
0
 10
57.9998
 20
28.9529
 11
57.1369
 21
29.1841
  0
LINE
  8
0
 10
57.1369
 20
29.1841
 11
56.3272
 21
29.5616
  0
LINE
  8
0
 10
56.3272
 20
29.5616
 11
55.5954
 21
30.074
  0
LINE
  8
0
 10
55.5954
 20
30.074
 11
54.9637
 21
30.7057
  0
LINE
  8
0
 10
54.9637
 20
30.7057
 11
54.4513
 21
31.4375
  0
LINE
  8
0
 10
54.4513
 20
31.4375
 11
54.0738
 21
32.2471
  0
LINE
  8
0
 10
54.0738
 20
32.2471
 11
53.8426
 21
33.1101
  0
LINE
  8
0
 10
53.8426
 20
33.1101
 11
53.7647
 21
34
  0
ENDSEC
  0
SECTION
  2
OBJECTS
  0
DICTIONARY
  0
ENDSEC
  0
EOF
